<?xml version="1.0" standalone="no"?>
<!DOCTYPE svg PUBLIC "-//W3C//DTD SVG 20010904//EN"
 "http://www.w3.org/TR/2001/REC-SVG-20010904/DTD/svg10.dtd">
<svg version="1.0" xmlns="http://www.w3.org/2000/svg"
 width="456.000000pt" height="456.000000pt" viewBox="0 0 456.000000 456.000000"
 preserveAspectRatio="xMidYMid meet">
<metadata>
Created by potrace 1.14, written by Peter Selinger 2001-2017
</metadata>
<g transform="translate(0.000000,456.000000) scale(0.100000,-0.100000)"
fill="#000000" stroke="none">
<path d="M1905 4535 c-14 -13 -25 -35 -25 -49 0 -39 150 -509 169 -529 24 -24
58 -29 91 -12 53 27 52 50 -4 229 -25 78 -59 187 -77 244 -34 109 -59 142
-106 142 -13 0 -35 -11 -48 -25z"/>
<path d="M3480 4137 c-27 -13 -41 -33 -180 -252 -79 -125 -87 -160 -44 -194
35 -27 74 -27 102 2 22 21 184 269 217 331 19 38 19 66 -3 93 -22 28 -60 37
-92 20z"/>
<path d="M110 3792 c-25 -8 -50 -45 -50 -76 0 -24 23 -53 137 -167 139 -141
162 -155 210 -135 26 11 47 57 39 88 -4 16 -225 250 -269 285 -7 6 -54 10 -67
5z"/>
<path d="M2110 3429 c-88 -8 -101 -10 -185 -29 -233 -52 -440 -166 -611 -334
-112 -111 -180 -204 -251 -344 -90 -177 -127 -326 -127 -512 0 -168 25 -276
95 -420 189 -388 691 -672 1189 -673 488 -2 926 299 1125 772 64 151 90 289
88 471 -3 404 -219 732 -611 929 -146 73 -337 127 -487 137 -38 3 -86 6 -105
7 -19 2 -73 -1 -120 -4z"/>
<path d="M4410 2972 c-21 -3 -271 -70 -333 -88 -29 -9 -57 -46 -57 -74 0 -34
42 -80 73 -80 12 0 79 16 148 35 68 20 134 37 147 40 48 8 97 40 107 68 17 50
-32 108 -85 99z"/>
<path d="M405 1781 c-27 -15 -95 -51 -149 -81 -55 -29 -112 -60 -128 -69 -56
-32 -60 -109 -7 -136 46 -24 33 -29 284 106 130 70 144 80 155 118 7 26 5 36
-17 61 -32 39 -71 39 -138 1z"/>
<path d="M3845 1488 c-30 -27 -37 -76 -14 -104 18 -22 305 -223 334 -234 33
-13 76 8 93 45 21 45 -7 82 -114 155 -52 36 -122 84 -155 108 -77 55 -107 61
-144 30z"/>
<path d="M1212 555 c-12 -9 -53 -78 -91 -153 -57 -114 -67 -142 -60 -165 4
-16 16 -35 26 -43 23 -17 74 -18 95 -2 23 18 148 272 148 301 0 56 -73 94
-118 62z"/>
<path d="M2606 484 c-14 -15 -26 -34 -26 -43 0 -23 119 -382 135 -407 31 -48
115 -37 134 18 10 27 2 56 -54 228 -52 158 -71 201 -90 214 -35 23 -69 20 -99
-10z"/>
</g>
</svg>
