<svg enable-background="new 0 0 40.896 47.719" height="48" viewBox="0 0 40.896 47.719" width="41" xmlns="http://www.w3.org/2000/svg"><g fill="#f6a50c"><path d="m29.777 41.023c-.137 0-.276-.014-.416-.044-16.787-3.548-28.972-18.596-28.972-35.78 0-1.104.895-2 2-2s2 .896 2 2c0 15.305 10.85 28.707 25.8 31.867 1.081.229 1.772 1.29 1.543 2.37-.199.942-1.03 1.587-1.955 1.587z"/><path d="m3.416 4.382c-.059 0-.118-.01-.177-.032-.257-.098-.388-.386-.291-.644.006-.015.561-1.511.561-3.206 0-.276.224-.5.5-.5s.5.224.5.5c0 1.884-.6 3.492-.626 3.559-.075.2-.265.323-.467.323z"/><path d="m2.389 5.097c-.21 0-.406-.134-.475-.344l-.75-2.283c-.086-.262.057-.545.319-.631.263-.086.545.057.631.319l.749 2.282c.087.263-.056.546-.318.632-.052.017-.104.025-.156.025z"/><path d="m1.057 5.514c-.211 0-.407-.134-.475-.346l-.557-1.713c-.085-.263.058-.545.321-.63.262-.085.544.058.629.321l.557 1.713c.085.263-.058.545-.321.63-.051.017-.103.025-.154.025z"/><path d="m3.478 6.155c-.276 0-.5-.224-.5-.5s.224-.5.5-.5c.12-.001 1.203-.045 1.408-1.094.054-.272.316-.448.587-.395s.448.316.395.587c-.295 1.505-1.692 1.902-2.39 1.902z"/><path d="m40.896 21.608-7.399 26.111c-4.291-2.02-11.482-5.979-10.931-17.828.292-6.273 5.09-11.38 11.37-11.38.45 0 .89.03 1.32.08 2.59.3 3.88 1.287 5.64 3.017z"/></g><path d="m28.768 32.045c-2.306 0-4.039-.96-4.147-1.022-.24-.136-.324-.44-.188-.681.136-.24.441-.325.681-.189.035.02 3.577 1.967 7.043 0 .24-.136.546-.052.682.188s.052.545-.188.682c-1.351.766-2.694 1.022-3.883 1.022z"/><path d="m27.725 23.104c-1.364 0-3.859-.275-5.632-2.071-1.659-1.679-2.253-4.215-1.766-7.538.08-.546.586-.923 1.134-.844.547.08.925.588.844 1.135-.39 2.662.015 4.625 1.202 5.834 1.796 1.828 4.905 1.453 4.936 1.448.549-.071 1.049.315 1.12.862s-.311 1.048-.857 1.121c-.048.006-.419.053-.981.053z" fill="#f6a50c"/><circle cx="20.767" cy="12.233" fill="#f6a50c" r="3.768"/><circle cx="20.767" cy="12.233" fill="#fcf1d5" r="2.876"/><path d="m20.364 10.024c-.962 0-1.745.783-1.745 1.745s.783 1.745 1.745 1.745 1.745-.783 1.745-1.745-.783-1.745-1.745-1.745z"/><circle cx="32.084" cy="4.465" fill="#f6a50c" r="3.768"/><path d="m36.705 21.113c-.037 0-.075-.002-.114-.006-.188-.021-1.874-.264-3.334-2.18-2.029-2.664-2.571-7.108-1.612-13.21.086-.546.598-.918 1.143-.833.546.086.918.597.833 1.143-1.071 6.815.045 10.075 1.17 11.61.958 1.307 2 1.478 2.044 1.485.539.082.923.581.851 1.121-.067.502-.487.87-.981.87z" fill="#f6a50c"/><circle cx="32.084" cy="4.465" fill="#fcf1d5" r="2.876"/><path d="m31.681 2.256c-.962 0-1.745.783-1.745 1.745s.783 1.745 1.745 1.745 1.745-.783 1.745-1.745-.782-1.745-1.745-1.745z"/></svg>