<svg xmlns="http://www.w3.org/2000/svg" viewBox="0 0 600 600" width="600" height="600"><g transform="translate(421.0 155.0) rotate(0.0 44.0 27.0) scale(2.7626043824951343 2.723970944309927)"><svg width="31.854" height="19.824" viewBox="0 0 31.854 19.824"><g><path d="M10.687 3.238a1 1 0 0 0-1.361-.381L.51 7.812a.997.997 0 0 0-.142 1.647l7.938 6.47a.998.998 0 0 0 1.407-.143 1 1 0 0 0-.144-1.407l-6.8-5.542 7.535-4.236c.483-.272.653-.882.383-1.363zm20.784 6.838-7.955-6.243a1 1 0 1 0-1.235 1.573l6.801 5.337-7.567 4.439a.999.999 0 1 0 1.013 1.724l8.833-5.182a.999.999 0 0 0 .11-1.648zM20.441.087a.998.998 0 0 0-1.321.505l-7.957 17.824a1 1 0 1 0 1.826.815l7.957-17.824a1 1 0 0 0-.505-1.32z" style="fill:#e24122"/></g></svg></g><g transform="translate(126.0 334.0) rotate(0.0 89.5 66.0) scale(2.5059147988968378 2.5380710659898478)"><svg width="71.431" height="52.008" viewBox="0 0 71.431 52.008"><path d="M13.972 51.508H59.28c6.435 0 11.652-5.217 11.652-11.652 0-13.095-10.615-23.71-23.71-23.71h-4.679c-5.321 0-10.337-2.525-13.465-6.829-2.807-3.862-6.789-8.035-11.179-8.612C.411-1.593.5 16.146.5 16.146v21.89c0 7.441 6.031 13.472 13.472 13.472z" fill="#f9c8b7"/><path d="M59.28 52.008H13.972C6.268 52.008 0 45.741 0 38.037v-21.89c-.002-.33.02-8.192 5.315-12.86C8.419.551 12.675-.484 17.964.21c4.672.614 8.842 5.132 11.518 8.813 3.014 4.147 7.896 6.623 13.061 6.623h4.679c13.349 0 24.21 10.861 24.21 24.21-.001 6.701-5.452 12.152-12.152 12.152zM14.905 1.001c-3.641 0-6.634 1.015-8.924 3.031C1.028 8.394 1 16.067 1 16.144v21.893c0 7.153 5.819 12.971 12.972 12.971H59.28c6.149 0 11.152-5.003 11.152-11.152 0-12.798-10.412-23.21-23.21-23.21h-4.679c-5.483 0-10.668-2.63-13.87-7.035-2.561-3.523-6.519-7.842-10.839-8.41a22.463 22.463 0 0 0-2.929-.2z"/></svg></g><g transform="translate(71.0 135.0) rotate(0.0 153.0 165.5) scale(2.4724675387636044 2.4720494111145137)"><svg width="123.763" height="133.897" viewBox="0 0 123.763 133.897"><path d="M86.182 56.49c-3.092-6.273-8.057-11.496-13.89-15.367-3.26-2.163-6.883-3.973-10.641-5.082-5.132-1.515-19.682-3.324-29.783 3.603-3.985 2.732-6.331 7.098-6.438 11.984-.116 5.278 2.147 10.401 4.813 14.838 2.828 4.706 6.382 8.929 9.325 13.561 2.567 4.04 4.858 8.569 5.051 13.442.151 3.794-.25 7.622-.638 11.391-.098.95-.249 1.909-.288 2.864-.133 4.334.221 8.977 2.974 12.532 3.016 3.895 8.274 5.807 13.09 5.735 8.271-.124 15.477-5.39 20.614-11.498 4.34-5.16 7.449-11.287 9.357-17.74 1.959-6.617 4.146-24.661-3.546-40.263z" fill="#1e7ec1"/><path d="M36.401 46.808 22.582 29.206c-.5-.638-1.597-.525-2.121 0-.63.63-.502 1.482 0 2.121L34.28 48.929c.5.638 1.597.525 2.121 0 .629-.629.502-1.481 0-2.121z" fill="#1e7ec1"/><path d="M24.684 12.334a16.318 16.318 0 0 0-2.157-1.058c-6.005-2.385-13.113-.866-17.86 3.448C2.459 16.731.781 19.397.215 22.349c-.632 3.304.164 6.652 1.866 9.519 3.45 5.813 10.475 8.928 17.11 7.918 6.348-.966 11.585-5.98 12.533-12.371.88-5.926-1.859-12.002-7.04-15.081zm36.535 8.897c-.898 0-1.394.693-1.5 1.5l-2.445 18.584c-.106.805.765 1.5 1.5 1.5.898 0 1.394-.693 1.5-1.5l2.445-18.584c.106-.805-.765-1.5-1.5-1.5z" fill="#1e7ec1"/><path d="M74.108 7.117C70.607 1.799 64.16-1.129 57.878.409c-5.974 1.462-10.347 6.986-11.48 12.881-.562 2.921-.351 5.974.854 8.712 1.25 2.845 3.56 5.077 6.35 6.407 5.696 2.714 13.595 2.539 18.517-1.731a11.548 11.548 0 0 0 1.582-1.703c3.946-5.263 4.005-12.394.407-17.858z" fill="#1e7ec1"/><circle cx="16.296" cy="24.832" fill="#fcf1d5" r="10.616"/><path d="M21.634 33.2c-5.214 1.265-10.006-2.205-8.593-7.697 1.311-5.091 8.107-6.715 11.607-2.967 3.056 3.273 1.64 9.459-2.869 10.628-.048.012-.096.025-.145.036z"/><circle cx="61.402" cy="15.815" fill="#fcf1d5" r="10.258"/><path d="M65.889 24.734a7.494 7.494 0 0 1-2.346.326c-6.981-.17-8.469-11.38-.982-12.726 4.841-.871 9.678 3.482 7.779 8.495-.731 1.928-2.483 3.309-4.451 3.905zM53.601 44.055c-.303-2.444-1.911-5.987-1.911-5.987l-10.622 2.375s.989 4.707 2.284 7.189c1.373 2.632 4.056 5.138 7.601 4.094 1.596-.47 3.316-2.297 2.648-7.671z"/><path d="M51.862 45.494c-.456-.641-.844-1.328-1.313-1.96a.759.759 0 0 0-.258-.281.76.76 0 0 0-.34-.179c-.24-.066-.558-.036-.771.101-.213.138-.401.343-.459.598-.056.246-.056.559.101.771.47.632.857 1.319 1.313 1.96.154.217.333.387.598.46.239.066.558.036.771-.101.213-.138.401-.343.459-.598.056-.25.053-.555-.101-.771zm-4.433-1.421c-.037-.232-.267-.485-.459-.598-.215-.125-.53-.179-.771-.101-.242.078-.475.228-.597.46-.134.253-.145.49-.101.771.193 1.228.521 2.428.764 3.646.102.514.742.856 1.23.698.546-.177.808-.679.698-1.23-.243-1.218-.571-2.419-.764-3.646z" fill="#fcf1d5"/><path d="M50.051 36.571c1.811 1.449 1.919 4.48.364 6.201-1.555 1.72-4.385 1.995-6.369.794s-3.048-3.658-2.808-5.965" fill="#1e7ec1"/><path d="M50.405 36.217c-.492-.408-1.203.296-.707.707 1.841 1.526 1.696 4.645-.237 6.038-2.11 1.52-5.13.883-6.62-1.181-.874-1.211-1.24-2.701-1.103-4.181.06-.641-.941-.636-1 0-.285 3.06 1.566 6.357 4.696 7.052 2.925.65 6.084-1.003 6.513-4.114.219-1.585-.286-3.28-1.542-4.321z"/><g fill="#1e7ec1"><path d="M94.628 130.791c-1.16.084-2.321.1-3.482.084-.072-2.695-.484-5.427-1.345-7.965-1.333-3.93-3.832-7.334-7.797-8.87-2.739-1.061-5.784-.946-8.623-.409-.796.151-1.25 1.11-1.047 1.845.229.835 1.046 1.199 1.845 1.048 1.147-.217 2.285-.342 3.587-.29 1.4.056 4.195.448 6.788 3.155 1.981 2.067 2.75 5.705 2.974 6.532.394 1.455.655 4.977.627 6.424-.016.841.701 1.459 1.5 1.5 1.658.085 3.316.067 4.972-.054.808-.059 1.5-.647 1.5-1.5.001-.766-.687-1.559-1.499-1.5zm-13.285-13.804c.149.055.073.028 0 0z"/><path d="M100.806 122.85c-.436-.745-1.32-.892-2.052-.538-.984.476-1.992.89-3.011 1.275-2.614-6.051-7.46-12.369-14.568-12.287-2.924.034-5.711 1.169-8.152 2.714-1.626 1.03-.123 3.628 1.514 2.59 1.052-.666 4.411-2.805 8.535-2.119.418.069.826.196 1.217.355 2.126.867 4.212 2.884 4.789 3.535 1.448 1.635 2.234 3.085 2.633 3.795.393.698 1.622 3.442 1.753 3.721.328.695 1.021 1.328 1.845 1.048a43.541 43.541 0 0 0 4.959-2.037c.729-.353.925-1.392.538-2.052zM18.294 68.527c-.028-.187-.068-.372-.104-.558a.471.471 0 0 0-.615-.349c-.282.088-.393.337-.349.615.024.156.11.548.024.735-.111.24-1.325.278-1.578.27-.262-.008-.512.236-.5.5a.51.51 0 0 0 .5.5c.458.014.916.003 1.369-.074.269-.045.555-.127.779-.287.225-.161.4-.374.47-.648.06-.238.04-.466.004-.704z"/><path d="M31.419 79.141c-.771.069-5.028.347-7.408-.936-2.289-1.234-4.115-3.843-4.888-5.143-.745-1.253-1.399-2.556-2.052-3.858-.47-.937-1.869-1.277-2.736-.717-.958.618-1.22 1.734-.718 2.736 1.285 2.561 2.615 5.09 4.487 7.282 1.735 2.031 4.063 3.553 6.646 4.26 1.926.526 7.222.95 11.805.19 1.892-.314 3.969-.653 5.91-1.116 1.019-.243-1.337-3.762-3.524-3.559-2.066.19-4.718.609-7.522.861z"/><path d="M14.751 65.352c-.037.473-.14 1.284.017 2.593.045.375.093.762.239 1.113.104.249.331.427.615.349.235-.065.454-.364.349-.615-.062-.149-.264-1.669-.266-2.059-.002-.46.01-.922.046-1.381.021-.27-.245-.5-.5-.5-.288 0-.479.229-.5.5zm.007 3.502-.403-1.32a.5.5 0 0 0-.957.292l.404 1.32c.065.215.329.429.624.332a.503.503 0 0 0 .332-.624z"/><path d="M14.481 70.181c-.331 0-.774-.781-.955-1.32a.499.499 0 1 0-.949.315c.111.335.724 2.005 1.904 2.005a.5.5 0 0 0 0-1zm103.491 26.592c-6.621.744-14.25-3.212-16.904-5.014-4.249-2.885-6.527-6.06-6.657-6.238-.965-1.321-2.429-4.123-3.159-5.587-2.075-4.158-4.864-2.22-4.178.382.849 3.222.886 3.733 2.736 6.504 2.062 3.086 4.684 5.647 7.752 7.752 2.822 1.937 11.247 6.545 20.699 6.05 1.041-.055 1.999-.826 2-2 .002-1.973-2.289-1.849-2.289-1.849z"/><path d="M118.204 97.335a2.08 2.08 0 0 1-.055-.22c-.003-.016-.017-.123-.009-.045.008.08-.003-.049-.004-.064a2.023 2.023 0 0 1 .002-.318c.001-.016.014-.124.004-.045-.011.078.006-.029.009-.045l.023-.111c.017-.073.038-.146.062-.218l.032-.089c.02-.056.027-.06 0-.003a2.268 2.268 0 0 1 .211-.38l.054-.077c.073-.103-.068.077.015-.018.092-.104.185-.204.291-.294.019-.016.118-.08.017-.015.031-.02.061-.044.092-.064.052-.034.106-.066.161-.096.033-.018.067-.034.101-.051.111-.056-.099.033.019-.008.072-.025.143-.049.216-.068.253-.066.432-.36.349-.615a.51.51 0 0 0-.615-.349c-1.443.379-2.373 2.029-1.941 3.46.076.25.354.434.615.349.254-.083.432-.348.351-.616zm4.213-1.356c-1.342-.429-2.885.05-3.667 1.237-.144.219-.051.563.179.684.25.132.53.054.684-.179.021-.031.041-.062.063-.092.023-.032.061-.075.015-.021a2.37 2.37 0 0 1 .3-.306c.01-.008.101-.079.048-.04s.041-.028.051-.035c.115-.079.236-.144.361-.206.085-.042-.043.013.013-.007.032-.011.064-.025.096-.037a2.78 2.78 0 0 1 .396-.11l.081-.015c.021-.004.154-.015.029-.005.129-.01.255-.021.384-.019.067.001.134.004.2.01l.099.01c-.118-.009-.023-.003.004.002.134.025.266.055.396.097a.504.504 0 0 0 .615-.349.51.51 0 0 0-.347-.619zm.314 1.774a2.653 2.653 0 0 0-1.481-.21c-.494.064-.97.204-1.455.313a.504.504 0 0 0-.349.615.51.51 0 0 0 .615.349c.411-.093.816-.209 1.232-.282.147-.026-.1.008.047-.007.052-.005.104-.011.157-.014.096-.006.193-.007.289-.002l.088.006a.894.894 0 0 0 .042.007l.087.018a1.363 1.363 0 0 1 .215.066.654.654 0 0 0 .008.004c.237.109.549.076.684-.179.116-.219.075-.567-.179-.684zm-1.215 2.053a6.56 6.56 0 0 0-3.044-.377c-.259.03-.513.208-.5.5.011.245.222.532.5.5a6.232 6.232 0 0 1 1.451 0c.036.004.035.004-.002-.001a3.804 3.804 0 0 1 .261.043 6.208 6.208 0 0 1 1.068.299c.245.092.559-.103.615-.349.065-.284-.086-.516-.349-.615z"/></g><path d="M15.956 42.427a26.533 26.533 0 0 0-4.793-1.261c-.443-.073-.757.323-.564.734.271.579.503 1.172.72 1.771a35.537 35.537 0 0 1-3.084-.754c-.618-.184-.882.781-.266.964 1.309.389 2.636.702 3.981.938.353.062.74-.222.615-.615a23.16 23.16 0 0 0-.708-1.894c1.303.265 2.583.622 3.834 1.079.605.223.865-.743.265-.962zM79.727 27.42c-.208-.208-.497-.17-.707 0l-2.433 1.97c-.003-.905.064-1.808.213-2.702.064-.384-.34-.841-.734-.565a13.377 13.377 0 0 0-2.794 2.602c-.168.211-.206.501 0 .707.175.175.538.212.707 0a12.791 12.791 0 0 1 1.693-1.711 17.103 17.103 0 0 0-.053 2.688c.028.457.516.627.854.354l3.255-2.635c.209-.171.176-.531-.001-.708z" fill="#e24122"/></svg></g><g transform="translate(395.0 120.0) rotate(0.0 71.0 72.0) scale(2.45798064772983 2.481261307831481)"><svg width="57.771" height="58.035" viewBox="0 0 57.771 58.035"><path d="M55.782 16.711c-1.491-3.278-3.779-6.166-6.461-8.553C44.5 3.869 38.308.805 31.852.151 27.008-.34 22.013.375 17.488 2.17c-4.307 1.708-8.034 4.407-11.061 7.911C3.448 13.529 1.193 17.674.36 22.182c-.804 4.356-.267 8.85 1.645 12.852 1.94 4.062 5.149 7.416 8.869 9.903 2 1.337 4.177 2.245 6.458 2.993 2.077.681 4.213 1.238 6.376 1.569.559.086 1.122.148 1.687.183-.344 2.565-.682 5.131-1.027 7.695-.049.363.341.869.734.565 3.179-2.453 5.915-5.46 7.805-9.017 3.438-.796 6.892-1.341 10.219-2.582 4.551-1.698 8.744-4.44 11.405-8.587 1.839-2.864 2.789-6.166 3.134-9.532.376-3.946-.24-7.902-1.883-11.513zm-2.565 21.208c-1.653 2.338-3.888 4.204-6.368 5.612-4.091 2.323-8.659 3.302-13.221 4.22-.378.076-.822.111-1.181.253-.476.188-1.601 2.464-1.946 2.959-1.4 2.009-3.111 3.793-4.992 5.361.311-2.325.618-4.651.931-6.976.042-.318-.123-.629-.482-.633-1.706-.018-3.42-.403-5.068-.808-2.23-.548-4.442-1.248-6.547-2.171-4.01-1.758-7.628-5.004-10.026-8.648-2.313-3.515-3.485-7.61-3.308-11.819.188-4.438 1.867-8.675 4.408-12.285 2.571-3.653 5.981-6.74 9.966-8.775 4.149-2.119 8.832-3.204 13.486-3.208 6.568-.006 12.813 2.459 18 6.422 5.633 4.303 9.689 10.596 9.902 17.821.029.994-.012 1.988-.106 2.978-.356 3.463-1.427 6.84-3.448 9.697z"/></svg></g><g transform="translate(156.0 374.0) rotate(0.0 56.0 41.0) scale(2.4779309276753914 2.4151743638077288)"><svg width="45.199" height="33.952" viewBox="0 0 45.199 33.952"><g fill="#f9c8b7"><path d="M11.173 33.452h34.026l-.259-13.087-2.908 1.047a30.073 30.073 0 0 1-10.186 1.777c-10.591 0-20.673-3.605-20.673-3.605z"/><path d="M.323 7.411C.51 6.176 2.202.486 3.245.5c1.739.023 8.951 8.669 11.379 12.019 5.643 7.789 8.41 20.933 8.41 20.933s-8.802.33-11.861 0C3.59 32.635-1.339 18.38.323 7.411z"/><path d="M23.034 33.452S21.43 14.72 3.245.5" stroke="#000" stroke-linecap="round" stroke-linejoin="round" stroke-miterlimit="10"/></g></svg></g><g transform="translate(310.0 399.0) rotate(0.0 81.0 33.5) scale(2.5793303294218797 2.557544757033248)"><svg width="62.807" height="26.197" viewBox="0 0 62.807 26.197"><g stroke="#000" stroke-linecap="round" stroke-linejoin="round" stroke-miterlimit="10"><path d="M45.166 25.697H17.641" fill="#f9c8b7"/><path d="m31.008 2.637.171 23.06" fill="none"/><path d="M.5.5h61.807v4.274H.5z" fill="#f9c8b7"/></g></svg></g><g transform="translate(265.0 284.0) rotate(0.0 134.5 58.5) scale(2.4744733695152243 2.467261339912697)"><svg width="108.71" height="47.421" viewBox="0 0 108.71 47.421"><path d="M1.361 46.921h26.468a.861.861 0 0 0 .861-.861v-3.218a.861.861 0 0 0-.861-.861H1.361a.861.861 0 0 0-.861.861v3.218c0 .475.385.861.861.861z" fill="#fcf1d5" stroke="#000" stroke-linecap="round" stroke-linejoin="round" stroke-miterlimit="10"/><path d="M107.321.5H44.344a.89.89 0 0 0-.826.56L25.773 45.704a.889.889 0 0 0 .826 1.217h62.976a.89.89 0 0 0 .826-.56l17.745-44.643A.888.888 0 0 0 107.321.5z" fill="#fcf1d5" stroke="#000" stroke-linecap="round" stroke-linejoin="round" stroke-miterlimit="10"/><path d="M77.319 24.175c-1.865 4.736-7.344 8.413-12.357 8.413-5.059 0-8.075-3.74-6.634-8.559 1.513-5.062 7.294-9.285 12.792-9.196 5.442.088 8.156 4.372 6.199 9.342z" fill="#fff"/></svg></g></svg>