<svg enable-background="new 0 0 76.185 86.065" height="87" viewBox="0 0 76.185 86.065" width="77" xmlns="http://www.w3.org/2000/svg"><path d="m53.337 57.302c-1.193 12.832-5.795 23.737-18.831 21.674-10.594-1.676-17.453-8.225-18.461-19.142-.836-9.059-.656-18.211.534-27.231 1.572-11.92 4.018-23.608 18.774-23.541 6.115.028 12.28 3.52 14.784 9.098 1.054 2.349 1.451 4.933 1.753 7.492.767 6.497 2.54 19.884 1.447 31.65z" fill="#e24122"/><path d="m52.837 57.302c-.491 5.211-1.466 10.747-4.29 15.253-1.16 1.851-2.683 3.483-4.588 4.578-2.095 1.205-4.504 1.657-6.903 1.588-5.205-.151-10.734-2.14-14.547-5.739-1.794-1.693-3.208-3.746-4.197-6.004-1.2-2.74-1.657-5.654-1.894-8.614-.648-8.088-.487-16.241.477-24.297.609-5.088 1.279-10.427 3.363-15.157.89-2.019 2.071-3.921 3.676-5.45 1.729-1.647 3.879-2.741 6.187-3.32 5.878-1.476 12.438-.172 16.779 4.209 2.438 2.46 3.606 5.582 4.166 8.953.453 2.727.712 5.503 1.013 8.251.745 6.793 1.255 13.635 1.066 20.472-.048 1.763-.148 3.523-.308 5.277-.059.641.942.637 1 0 .677-7.412.303-14.896-.402-22.291-.268-2.811-.597-5.615-.932-8.419-.414-3.458-.835-7.008-2.649-10.06-3.302-5.554-9.81-8.289-16.099-7.928-2.678.153-5.357.75-7.713 2.068-2.037 1.14-3.726 2.795-5.018 4.731-2.821 4.228-3.817 9.47-4.555 14.41-1.175 7.866-1.661 15.817-1.338 23.766.145 3.561.262 7.235 1.19 10.696.693 2.584 1.84 5.049 3.471 7.176 3.303 4.308 8.295 6.814 13.553 7.827 2.688.518 5.479.676 8.146-.05 2.233-.607 4.25-1.831 5.854-3.495 3.601-3.738 5.125-9.106 5.944-14.098.236-1.437.414-2.883.55-4.333.058-.64-.942-.636-1.002 0z" fill="#e24122"/><path d="m31.188 21.953c-2.434.481-5.773 2.028-7.245 4.19-2.616 3.843 2.383 8.434 6.164 5.953.834-.547 1.488-1.34 2.34-1.86 2.152-1.313 5.005-.558 7.114.824.667.437 1.307.937 2.057 1.207 3.412 1.228 6.133-2.476 4.711-5.445-1.417-2.959-4.833-4.292-7.851-4.752-2.614-.398-5.015-.566-7.29-.117z" fill="#fcf1d5"/><path d="m31.055 21.471c-2.06.422-4.101 1.309-5.77 2.595-1.472 1.134-2.728 2.744-2.551 4.702.321 3.553 4.621 5.719 7.626 3.76 1.064-.694 1.853-1.778 3.08-2.216 1.098-.392 2.3-.297 3.402.023 1.221.355 2.23 1.016 3.281 1.704.885.58 1.872 1.004 2.949.968 1.788-.06 3.276-1.307 3.875-2.955.67-1.841-.034-3.697-1.279-5.105-1.521-1.72-3.773-2.674-5.975-3.158-2.793-.613-5.816-.85-8.638-.318-.632.119-.364 1.083.266.964 2.367-.446 4.827-.243 7.189.144 1.779.291 3.556.839 5.06 1.858 1.406.952 2.756 2.53 2.637 4.33-.102 1.534-1.256 2.985-2.815 3.214-1.013.149-1.935-.262-2.764-.805-.87-.569-1.707-1.125-2.678-1.513-1.77-.707-3.866-.911-5.588.044-.961.533-1.652 1.421-2.576 2.001-.678.425-1.45.635-2.251.582-1.466-.097-2.834-1.075-3.469-2.388-1.977-4.09 4.226-6.847 7.255-7.467.63-.129.363-1.093-.266-.964z" fill="#fcf1d5"/><path d="m32.617 25.424c.004 2.844 4.452 3.376 4.076-.11-.318-2.944-4.078-2.766-4.076.11z"/><path d="m32.117 25.424c.01 1.072.594 2.082 1.58 2.54.896.416 1.971.384 2.74-.28.898-.776.958-2.274.54-3.308-.422-1.045-1.431-1.8-2.592-1.678-.6.063-1.174.324-1.578.78-.478.54-.685 1.234-.69 1.946-.004.644.996.644 1 0 0-.072.002-.144.007-.215.002-.031.005-.062.008-.092.001-.015.014-.11.005-.046-.011.075.013-.066.012-.064.005-.028.011-.056.018-.084.015-.068.033-.135.054-.202.016-.051.035-.101.054-.152-.041.11.014-.028.029-.058.051-.101.112-.193.175-.286-.075.11.027-.03.046-.052.035-.039.072-.077.111-.113.034-.032.07-.061.105-.091-.093.082.027-.018.065-.043.076-.049.157-.088.237-.13.1-.052-.079.029-.011.005.021-.007.042-.016.063-.023.053-.018.106-.034.16-.048.043-.011.087-.019.13-.028.117-.026-.095.003.049-.007.1-.007.2-.01.301-.003.059.004.144.02.034 0 .044.008.089.015.132.025.106.023.207.057.308.095.064.024-.085-.041-.025-.01.025.013.052.025.078.038.041.021.082.044.121.068.04.024.077.053.117.077.073.045-.003-.003-.016-.014.028.023.056.046.083.069.079.07.147.148.218.225.047.052-.049-.069-.008-.012.015.021.03.042.045.063.037.054.072.11.105.167.03.053.056.109.085.163.009.018.038.087 0-.004.011.026.021.053.031.08.047.127.084.257.113.389.013.063.025.125.035.189-.014-.089.002.018.004.04.003.033.006.066.009.099.011.139.014.278.008.418-.003.064-.009.128-.014.192-.002.025-.017.097.002-.011-.005.026-.008.053-.013.079-.024.111-.049.22-.086.328-.008.022-.017.045-.025.067-.037.11.035-.073.003-.007-.02.04-.039.081-.061.121-.024.043-.049.085-.077.126-.012.018-.025.035-.037.053-.051.08.072-.072 0-.002-.059.057-.113.119-.173.175-.098.092.065-.034-.03.024-.038.023-.075.05-.113.073-.039.023-.08.041-.118.063-.096.054.1-.031-.031.013-.085.029-.17.055-.258.074-.039.008-.079.013-.119.021.15-.03.025-.005-.018-.002-.097.006-.194.006-.291-.001-.018-.001-.163-.018-.072-.005.089.012-.063-.012-.087-.017-.093-.019-.184-.044-.273-.074-.05-.017-.099-.036-.149-.056.121.047-.011-.007-.055-.03-.091-.047-.178-.1-.263-.157-.023-.015-.044-.032-.066-.047.042.028.065.055.011.008-.042-.036-.083-.071-.123-.108-.077-.073-.145-.151-.213-.232.089.107-.018-.029-.04-.062-.031-.048-.061-.096-.088-.146-.028-.051-.051-.104-.078-.155-.013-.025-.03-.087.009.022-.012-.034-.025-.067-.037-.101-.04-.118-.063-.237-.091-.357-.006-.025-.013-.098.001.019-.004-.032-.007-.065-.01-.097-.006-.073-.009-.147-.01-.221-.007-.646-1.007-.647-1.002-.003z"/><path d="m29.834 14.979c2.131-.955 4.586-1.23 6.877-.791.53.101 1.079-.149 1.23-.698.134-.489-.165-1.128-.698-1.23-2.864-.548-5.759-.198-8.418.993-.493.221-.61.938-.359 1.368.297.506.873.58 1.368.358z"/><path d="m37.817 54.642c1.088-1.499 1.335-3.43 1.548-5.27.461-3.984-.004-8.094-.157-12.099-.028-.73-.07-1.504-.485-2.105-.115-.166-.312-.329-.5-.254-.158.064-.21.258-.242.425-.244 1.301-1.008 3.272-2.681 3.056h-.564c-1.674.215-2.438-1.755-2.681-3.056-.031-.168-.083-.362-.242-.425-.188-.075-.385.087-.5.254-.415.601-.457 1.375-.485 2.105-.153 4.004-.618 8.114-.157 12.099.213 1.84.46 3.771 1.548 5.27 1.358 1.871 4.208 1.914 5.598 0z"/><path d="m38.249 54.895c1.259-1.803 1.501-4.107 1.689-6.241.228-2.58.104-5.173-.042-7.754-.072-1.275-.133-2.551-.197-3.826-.042-.836-.141-2.149-1.007-2.579-.883-.438-1.135.542-1.293 1.161-.182.711-.48 1.537-1.091 1.994-.486.364-1.219.272-1.802.262-.822-.013-1.31-.748-1.601-1.435-.239-.565-.229-1.615-.791-1.958-.858-.523-1.467.665-1.63 1.328-.272 1.114-.194 2.339-.257 3.478-.072 1.295-.153 2.589-.205 3.885-.099 2.488-.043 4.96.306 7.428.293 2.073.934 4.609 3.027 5.56 1.765.799 3.741.208 4.894-1.303.39-.512-.478-1.01-.863-.505-.935 1.226-2.702 1.533-3.996.69-1.59-1.036-1.928-3.366-2.145-5.091-.278-2.213-.31-4.431-.225-6.658.085-2.212.144-4.455.342-6.659.023-.253.061-.507.141-.75.058-.177.331-.505.153-.548-.194-.047-.064.205-.031.351.04.179.088.357.143.533.197.631.479 1.252.908 1.76.782.925 2.068 1.036 3.205.867 1.356-.202 2.084-1.568 2.43-2.763.038-.131.072-.264.102-.397.034-.149.16-.398-.031-.351-.215.053-.034.082.015.216.055.151.124.274.168.426.08.279.107.569.126.857.073 1.098.103 2.2.166 3.299.143 2.503.294 5.014.153 7.52-.126 2.242-.298 4.802-1.622 6.698-.372.529.495 1.029.861.505z"/><path d="m33.375 39.103c.649.256 1.374.222 2.064.12 1.685-.249 2.376-.906 2.76-2.583.229 1.12.318 2.588-.066 3.693-.235.676-.928 1.08-1.607 1.304-1.291.426-2.782.388-3.934-.334-.315-.197-.612-.459-.731-.811-.379-1.127-.181-2.518-.087-3.678-.056.702.993 2.048 1.601 2.289z" fill="#fcf1d5"/><path d="m33.242 39.585c.751.277 1.552.237 2.33.12.525-.079 1.049-.212 1.518-.468.929-.509 1.359-1.476 1.592-2.464-.321 0-.643 0-.964 0 .169.85.247 1.746.129 2.608-.048.354-.115.781-.335 1.074-.227.303-.594.505-.941.638-.798.306-1.709.416-2.55.241-.418-.087-.814-.234-1.177-.462-.372-.234-.521-.498-.612-.921-.219-1.023-.044-2.108.042-3.137-.333 0-.667 0-1 0-.023.565.297 1.128.619 1.57.318.437.72.93 1.229 1.151.25.108.534.072.684-.179.126-.21.068-.577-.179-.684-.359-.155-.642-.484-.87-.792-.223-.301-.496-.721-.482-1.066.027-.649-.947-.633-1 0-.093 1.114-.24 2.241-.017 3.35.108.535.321.984.751 1.332.407.33.894.563 1.395.713 1.81.541 4.739.084 5.299-2.027.316-1.191.218-2.481-.021-3.676-.097-.486-.854-.467-.964 0-.174.739-.432 1.483-1.132 1.866-.351.192-.754.281-1.146.347-.647.108-1.309.13-1.932-.099-.604-.222-.865.744-.266.965z" fill="#fcf1d5"/><path d="m33.526 53.757c.584.159 1.237.138 1.859.075 1.068-.109 1.744-.501 2.442-1.385.028-.035.089.831.034.999-.13.406-.419.789-.708 1.066-.609.582-1.431.839-2.225.813-.626-.021-1.238-.207-1.793-.527-.733-.423-.959-1.131-.982-2.05-.002-.063.016-.147.073-.147.362.502.696.999 1.3 1.156z" fill="#fcf1d5"/><path d="m33.393 54.239c.904.23 1.981.2 2.876-.069.784-.235 1.405-.739 1.911-1.37-.118.049-.236.098-.354.146h.004c-.161-.122-.321-.245-.482-.367.01.025.003.088.008.025.007-.077.005.069.007.092.01.129.017.258.019.388.001.056-.001.113 0 .169 0 .042-.03.156.004.034-.041.147-.116.28-.198.409-.396.621-1.069 1.02-1.796 1.112-.718.091-1.565-.098-2.152-.534-.21-.156-.36-.374-.447-.619-.079-.222-.207-.702-.13-.896-.077.1-.153.199-.23.299.015-.008.03-.016.044-.024-.228-.06-.456-.12-.684-.179.43.595.862 1.169 1.6 1.384.619.18.884-.785.266-.964-.463-.135-.734-.554-1.002-.926-.161-.224-.428-.32-.684-.179-.399.219-.33.706-.282 1.088.046.368.132.719.301 1.052.359.707 1.102 1.105 1.832 1.332 1.6.497 3.453-.058 4.299-1.562.181-.322.265-.629.259-.995-.004-.23.019-.556-.069-.77-.094-.228-.238-.34-.482-.367-.247-.028-.388.191-.527.351-.125.144-.257.282-.4.408-.22.195-.48.354-.758.453-.757.27-1.712.312-2.487.115-.624-.159-.89.805-.266.964z" fill="#fcf1d5"/><path d="m35.993 50.63c-1.003.365-3.879-.007-3.421-1.672.295-1.069 2.642-.799 3.417-.692 1.668.231 1.371 1.866.004 2.364z" fill="#e24122"/><path d="m35.86 50.148c-.059.021-.12.039-.181.053-.034.008-.068.015-.102.021-.018.003-.036.006-.053.009-.058.011-.081.041.022-.002-.132.054-.352.028-.493.028-.193-.001-.384-.016-.575-.039.115.014.012.001-.039-.008-.04-.007-.08-.014-.12-.022-.096-.019-.192-.041-.287-.067-.088-.024-.175-.051-.26-.082-.042-.015-.083-.033-.125-.048.137.049-.024-.013-.059-.03-.075-.037-.149-.078-.219-.124-.03-.019-.057-.042-.088-.061-.054-.033.074.068.03.023-.017-.017-.038-.032-.056-.048-.029-.026-.056-.053-.082-.081-.013-.014-.025-.029-.038-.042-.061-.061.027.036.025.035-.022-.009-.05-.073-.062-.092-.009-.016-.018-.032-.027-.048-.051-.087.021-.011.004.019.023-.042-.085-.164-.059-.217.002-.004.005.138.008.046.001-.02-.002-.04-.002-.06 0-.028-.01-.099.006-.124-.023.036-.021.099-.005.036.006-.022.008-.044.013-.066.002-.009.029-.124.034-.123.028.005-.059.106-.017.041.01-.015.017-.033.026-.049s.021-.031.03-.047c.044-.078-.077.073-.009.014.027-.024.056-.052.081-.078.051-.053-.094.056.016-.008.035-.02.069-.042.105-.06.018-.009.038-.017.056-.027.078-.043-.074.021-.016.007.187-.046.364-.107.555-.139.027-.005.096-.008-.023.003.025-.002.05-.006.074-.008.05-.005.1-.01.151-.013.108-.008.216-.012.325-.014.39-.007.781.018 1.169.061.074.008.148.017.222.026.021.003.147.019.041.005-.111-.015.072.011.093.015.115.021.225.054.336.09.027.009.078.043-.011-.006.022.012.045.021.067.033.047.025.089.058.136.083.057.03-.062-.065-.022-.017.016.02.041.036.059.054.014.014.028.031.043.045.07.065-.048-.088-.004-.006.02.037.042.079.065.114.033.051-.026-.099-.018-.04.003.023.015.046.021.068.005.018.007.037.012.056.023.083.001-.092-.005-.034-.004.041.002.088.001.13-.003.135.029-.09-.008.043-.012.044-.025.088-.039.132-.006.019-.036.081-.004.013.035-.075-.007.011-.015.027-.027.048-.054.095-.084.141-.012.019-.026.037-.039.055.032-.046.048-.057.003-.007-.036.039-.071.079-.11.116-.017.017-.035.033-.053.049-.011.01-.092.077-.035.032.053-.042-.011.008-.025.017-.027.018-.053.036-.08.053-.056.035-.113.068-.172.097-.024.012-.049.023-.073.035.079-.039.003-.003-.035.012-.253.095-.425.338-.349.615.067.243.361.444.615.349.525-.197 1.012-.529 1.287-1.031.251-.458.299-1.002.05-1.471-.262-.494-.822-.75-1.352-.828-.414-.061-.832-.105-1.25-.121-.503-.019-1.02-.001-1.511.119-.451.11-.933.349-1.154.78-.234.456-.228 1.017.011 1.47.207.391.595.676.993.851.503.222 1.037.333 1.586.368.44.028.921.012 1.34-.137.254-.09.424-.341.349-.615-.068-.246-.36-.44-.615-.349z" fill="#e24122"/><path d="m28.215 67.215c-.639 3.513-1.36 7.126-3.844 9.849-2.152 2.36-5.182 3.867-8.376 4.08-.374.025-.628.407-.432.752.744 1.308 1.489 2.616 2.233 3.925.318.559 1.183.056.863-.505-.744-1.308-1.489-2.616-2.233-3.925-.144.251-.288.502-.432.752 3.391-.225 6.628-1.756 8.957-4.236 2.702-2.878 3.542-6.659 4.227-10.427.116-.628-.848-.898-.963-.265z" fill="#e24122"/><path d="m42.737 72.913c2.733 4.109 5.139 8.424 7.197 12.909.116.253.464.295.684.179 1.358-.715 2.664-1.517 3.917-2.404.521-.369.022-1.237-.505-.863-1.253.888-2.559 1.689-3.917 2.404.228.06.456.12.684.179-2.058-4.485-4.464-8.8-7.197-12.909-.355-.534-1.221-.033-.863.505z" fill="#e24122"/><path d="m19.087 38.554c-4.342-.907-9.068-.042-12.667 2.611-3.417 2.52-5.818 6.347-6.399 10.576-.11.802.194 1.611 1.048 1.845.7.192 1.734-.24 1.845-1.048.472-3.439 2.218-6.68 5.02-8.783 2.922-2.193 6.78-3.055 10.355-2.309.792.165 1.621-.232 1.845-1.048.205-.743-.25-1.678-1.047-1.844z" fill="#e24122"/><path d="m52.093 40.817c4.342.907 9.068.042 12.667-2.611 3.417-2.52 5.818-6.347 6.399-10.576.11-.802-.194-1.611-1.048-1.845-.7-.192-1.734.24-1.845 1.048-.472 3.439-2.218 6.68-5.02 8.783-2.922 2.193-6.78 3.055-10.355 2.309-.792-.165-1.621.232-1.845 1.048-.205.743.25 1.678 1.047 1.844z" fill="#e24122"/><path d="m20.734 35.396c1.903-.372 3.873-.411 5.789-.104.266.043.538-.069.615-.349.065-.238-.081-.572-.349-.615-2.104-.337-4.229-.305-6.32.104-.631.123-.364 1.087.265.964z" fill="#eaa711"/><path d="m43.656 34.853c1.486-.47 3.037-.607 4.583-.414.268.033.5-.254.5-.5 0-.298-.231-.466-.5-.5-1.625-.202-3.288-.044-4.849.45-.611.194-.35 1.159.266.964z" fill="#eaa711"/><path d="m67.705 22.179c-.557-.77-1.114-1.539-1.672-2.309-.153-.211-.442-.336-.684-.179-.209.135-.343.458-.179.684.557.77 1.114 1.539 1.672 2.309.153.211.442.336.684.179.209-.135.343-.458.179-.684z"/><path d="m71.162 21.165c.085-1.079.171-2.157.256-3.236.021-.261-.245-.511-.5-.5-.289.013-.478.22-.5.5-.085 1.079-.171 2.157-.256 3.236-.021.261.245.511.5.5.288-.013.477-.22.5-.5z"/><path d="m74.607 23.128c.478-.499.957-.999 1.435-1.498.181-.189.202-.522 0-.707-.196-.18-.514-.202-.707 0-.478.499-.957.999-1.435 1.498-.181.189-.202.522 0 .707.196.18.513.202.707 0z"/><path d="m37.208 60.366c-.554.683-1.155 1.286-1.731 1.974-.106.126-.226.261-.389.285-.226.033-.416-.157-.564-.33-.535-.623-1.069-1.246-1.604-1.869-.192-.224-.39-.459-.46-.746s.032-.639.304-.754c.128-.055.272-.05.411-.044 1.194.054 2.375-.119 3.57-.024.378.03.829.159.92.527.056.228-.057.464-.198.652-.086.112-.172.222-.259.329z"/><path d="m36.854 60.013c-.543.665-1.144 1.281-1.699 1.936-.019.023-.178.165-.178.196 0-.001.088.008.084-.018-.005-.032-.136-.131-.158-.156-.077-.086-.151-.175-.226-.263-.301-.351-.602-.701-.902-1.052-.249-.29-.544-.571-.742-.9-.049-.081-.11-.186-.096-.286.015-.108.047-.092.153-.092.896.004 1.788-.038 2.683-.049.4-.005.898-.056 1.279.096.052.021.129.081.13.083.021.155-.237.392-.328.505-.169.21-.205.502 0 .707.175.175.537.211.707 0 .351-.436.762-.93.565-1.53-.158-.48-.644-.726-1.114-.799-1.196-.186-2.43.029-3.634-.001-.295-.007-.595-.034-.868.105-.238.121-.406.332-.497.58-.193.524.023 1.039.347 1.454.36.462.76.897 1.141 1.341.201.234.4.468.602.701.179.208.372.412.638.504.685.237 1.087-.39 1.476-.829.45-.508.915-1.001 1.344-1.526.171-.209.204-.503 0-.707-.176-.177-.535-.211-.707 0z"/><path d="m31.747 69.92c-.053.125-.107.254-.108.389-.002.188.097.36.194.52.948 1.563 2.07 3.021 3.339 4.338 1.191-1.246 2.271-2.598 3.225-4.034.094-.141.189-.291.204-.46.016-.178-.058-.35-.13-.513-.735-1.665-1.389-3.366-1.957-5.095-.292-.888-.561-1.783-.808-2.685-.071-.261-.126-.954-.355-1.132-.62-.481-.583.762-.688 1.096-.273.875-.614 1.736-.934 2.594-.624 1.674-1.285 3.335-1.982 4.982z"/><path d="m31.265 69.787c-.401 1.042.652 2.144 1.226 2.941.71.984 1.489 1.916 2.327 2.793.183.192.524.193.707 0 .697-.735 1.358-1.5 1.979-2.299.512-.66 1.22-1.403 1.514-2.193.299-.804-.424-1.816-.715-2.532-.402-.99-.776-1.991-1.12-3.002-.327-.961-.628-1.932-.903-2.91-.159-.566-.155-1.396-.678-1.769-1.226-.873-1.376 1.281-1.601 1.94-.798 2.336-1.727 4.639-2.687 6.912-.247.586.614 1.096.863.505.861-2.04 1.664-4.102 2.437-6.177.243-.652.694-1.487.642-2.21.008-.037.016-.073.024-.11.078-.177-.001-.171-.235.02-.033.066.099.43.117.519.089.444.219.876.347 1.31.601 2.045 1.322 4.053 2.152 6.016.092.219.186.437.281.655.171.395.122.536-.104.873-.291.436-.599.862-.915 1.28-.653.863-1.362 1.681-2.106 2.466h.707c-.703-.736-1.369-1.507-1.976-2.325-.283-.382-.556-.772-.816-1.169-.245-.373-.677-.816-.504-1.266.232-.603-.734-.864-.963-.268z"/><g fill="#e24122"><path d="m39.931 13.637c-1.094-3.904-.864-8.695 2.627-11.356 1.441-1.099 3.293-1.55 5.066-1.124 1.567.376 3.088 1.479 3.464 3.118.278 1.211-.205 2.496-.97 3.433-.293.359-1.392 1.519-1.91 1.172-.227-.152-.232-.675-.16-.93.113-.401.467-.658.829-.824.963-.443 2.184-.421 3.196-.18.504.12 1.04.301 1.429.658.713.654.961 1.865 1.05 2.784.157 1.629-.218 4.089-2.163 4.437.128.305.257.609.385.914 1.359-.746 2.938.257 3.308 1.645.411 1.544-.367 3.064-1.474 4.103-1.701 1.596-5.245 3.057-7.014.782-.395-.507-1.098.205-.707.707 2.331 2.999 7.171.896 9.081-1.488 1.173-1.465 1.678-3.572.705-5.281-.862-1.513-2.856-2.181-4.404-1.331-.525.288-.146 1.009.385.914 2.014-.361 2.859-2.571 2.929-4.396.069-1.783-.394-4.157-2.151-5.023-1.833-.903-6.74-1.032-6.406 2.112.139 1.313 1.23 1.706 2.341 1.146 1.257-.634 2.21-1.985 2.601-3.312.51-1.732-.061-3.516-1.388-4.721-1.584-1.439-3.901-1.895-5.956-1.404-2.496.596-4.448 2.616-5.442 4.918-1.202 2.784-1.02 5.929-.217 8.794.176.617 1.141.354.966-.267z"/><path d="m66.612 25.634c-.005 1.003.769 1.983 1.77 2.155.136.023.262.022.385-.05.104-.061.203-.18.23-.299.055-.242-.074-.568-.349-.615-.117-.02-.23-.053-.34-.098.04.017.08.034.119.05-.102-.043-.199-.095-.29-.157-.02-.013-.039-.027-.058-.041-.069-.048.105.087.008.005-.039-.033-.077-.068-.113-.104s-.071-.074-.104-.114c-.082-.097.053.077.005.008-.014-.019-.028-.039-.041-.058-.062-.092-.114-.189-.159-.291.017.04.034.08.05.119-.058-.138-.099-.282-.119-.431.006.044.012.089.018.133-.009-.071-.013-.141-.012-.213.001-.262-.231-.512-.5-.5-.272.014-.499.221-.5.501z"/><path d="m69.05 23.981c-.536.941-.854 1.974-.963 3.049-.027.261.249.511.5.5.294-.013.471-.22.5-.5.007-.067.014-.133.023-.199-.012.094.008-.047.01-.066.018-.116.039-.231.063-.345.05-.237.112-.472.185-.703.036-.111.074-.222.115-.331.021-.055.042-.109.064-.163.023-.055.025-.062.008-.019.01-.023.02-.046.03-.069.098-.222.208-.438.328-.648.13-.227.061-.557-.179-.684-.237-.127-.546-.065-.684.178z"/><path d="m70.595 24.126c-.491.721-.825 1.559-.957 2.422-.021.138-.023.26.05.385.061.104.18.203.299.23.239.054.573-.073.615-.349.062-.405.167-.802.316-1.184.009-.023.064-.162.018-.048.02-.05.043-.098.065-.147.042-.091.087-.181.134-.27.098-.184.206-.361.323-.533.148-.217.048-.564-.179-.684-.254-.135-.526-.053-.684.178z"/><path d="m71.793 24.865c-.821 1.031-1.455 2.177-1.878 3.426-.084.248.096.557.349.615.277.063.525-.084.615-.349.353-1.042.94-2.13 1.621-2.985.168-.211.206-.501 0-.707-.174-.174-.538-.212-.707 0z"/><path d="m.904 53.674c.093-.395.186-.791.279-1.186.03-.129.018-.269-.05-.385-.061-.104-.18-.203-.299-.23-.128-.029-.272-.023-.385.05-.107.069-.2.171-.23.299-.093.395-.186.791-.279 1.186-.03.129-.018.269.05.385.061.104.18.203.299.23.128.029.272.023.385-.05.108-.069.2-.171.23-.299z"/><path d="m2.14 53.957c.03-.395.06-.79.09-1.185.009-.122-.062-.27-.146-.354-.087-.087-.229-.152-.354-.146-.129.006-.263.048-.354.146-.094.102-.136.215-.146.354-.03.395-.06.79-.09 1.185-.009.122.062.27.146.354.087.087.229.152.354.146.129-.006.263-.048.354-.146.093-.102.136-.216.146-.354z"/><path d="m3.275 53.438c-.004-.009-.008-.018-.011-.027.017.04.034.08.05.119-.092-.223-.155-.455-.189-.694.006.044.012.089.018.133-.033-.249-.033-.499-.001-.748-.006.044-.012.089-.018.133.007-.048.014-.095.023-.142.025-.135.021-.264-.05-.385-.061-.104-.18-.203-.299-.23-.245-.056-.565.074-.615.349-.059.319-.084.643-.047.966.021.178.047.356.093.53.046.173.113.337.182.501.045.107.193.201.299.23.12.033.279.018.385-.05.107-.069.201-.171.23-.299.032-.141.005-.256-.05-.386z"/><path d="m2.764 51.715c.277.143.555.286.832.429.119.061.253.087.385.05.116-.032.242-.122.299-.23.061-.116.092-.257.05-.385-.039-.12-.114-.239-.23-.299-.277-.143-.555-.286-.832-.429-.119-.061-.253-.087-.385-.05-.116.032-.242.122-.299.23-.061.116-.092.257-.05.385.04.12.115.239.23.299z"/></g></svg>