<svg enable-background="new 0 0 70.567 52.776" height="53" viewBox="0 0 70.567 52.776" width="71" xmlns="http://www.w3.org/2000/svg"><path d="m70.42 48.854c-3.727-3.727-7.454-7.454-11.181-11.181-.903-.903-1.805-1.805-2.708-2.708-.291-.291-.492-.558-.901-.583-.497-.031-1.006 0-1.504 0-4.729 0-9.459 0-14.188 0-1.416 0-2.832 0-4.247 0-.643 0-.645 1 0 1h17.568 2.483c-.118-.049-.236-.098-.354-.146 4.775 4.775 9.55 9.55 14.326 14.326.455.455 1.162-.252.706-.708z"/><path d="m33.514 26.08c-3.203-4.232-8.748-6.22-13.873-4.625-2.416.752-4.796 2.204-6.093 4.433-1.15 1.977-1.692 4.348-1.752 6.622-.069 2.595.81 4.961 2.267 7.091 1.339 1.957 2.999 3.436 5.273 4.183 4.023 1.322 9.292.614 12.418-2.393 4.142-3.985 5.232-10.557 1.76-15.311-.376-.514-1.244-.016-.863.505 2.825 3.867 2.459 8.983-.391 12.736-2.527 3.328-6.901 4.58-10.944 3.916-1.951-.32-3.781-1.114-5.143-2.575-1.609-1.726-2.997-4.046-3.302-6.419-.263-2.047.059-4.216.755-6.149.345-.957.812-1.906 1.466-2.692.754-.907 1.778-1.596 2.811-2.146 5.025-2.672 11.329-1.185 14.747 3.33.384.506 1.253.008.864-.506z"/><path d="m11.396 37.1c-1.432 1.237-2.96 2.645-3.177 4.636-.186 1.707.73 3.369 2.493 3.716 2.017.397 3.789-.817 5.39-1.869 1.785-1.173 3.522-2.418 5.21-3.725 3.395-2.63 6.585-5.522 9.529-8.649 1.459-1.55 2.858-3.157 4.192-4.817 1.011-1.258 2.144-2.63 2.329-4.297.19-1.711-1.118-3.102-2.832-3.03-1.67.07-3.395.972-4.644 2.042-.489.419.221 1.124.707.707.955-.819 2.223-1.47 3.464-1.694.612-.111 1.263-.099 1.753.328.539.469.657 1.143.517 1.819-.301 1.446-1.37 2.644-2.273 3.755-1.138 1.4-2.322 2.763-3.55 4.085-2.481 2.67-5.14 5.174-7.953 7.491-1.416 1.166-2.871 2.282-4.364 3.348-1.453 1.037-2.935 2.127-4.515 2.964-.874.463-1.887.794-2.877.537-.919-.238-1.485-.979-1.587-1.906-.224-2.044 1.501-3.529 2.894-4.733.489-.423-.221-1.127-.706-.708z" fill="#1e7ec1"/><path d="m25.737 7.756c-.366-1.917-.747-3.828-1.232-5.719-.245.188-.49.376-.734.565 1.416.706 2.831 1.412 4.247 2.117.206.103.435.082.606-.078 1.352-1.266 2.704-2.533 4.057-3.799-.285-.118-.569-.236-.854-.354-.058 1.911-.116 3.823-.174 5.734-.007.242.165.398.367.482l4.692 1.962c0-.321 0-.643 0-.964-2.122.543-4.245 1.085-6.367 1.628-.226.058-.35.264-.367.482-.143 1.833-.287 3.666-.43 5.499.311-.084.621-.168.932-.252-1.061-1.53-2.123-3.06-3.184-4.59-.126-.182-.34-.294-.565-.23-1.516.435-3.031.87-4.547 1.306.188.245.376.49.565.734.932-1.303 1.864-2.606 2.796-3.909.375-.524-.492-1.024-.863-.505-.932 1.303-1.864 2.606-2.796 3.909-.26.364.17.848.565.734 1.516-.435 3.031-.87 4.547-1.306-.188-.077-.376-.153-.565-.23 1.061 1.53 2.123 3.06 3.184 4.59.288.415.892.252.932-.252.143-1.833.287-3.666.43-5.499-.122.161-.245.321-.367.482 2.122-.543 4.245-1.085 6.367-1.628.525-.134.42-.789 0-.964-1.564-.654-3.128-1.308-4.692-1.962.122.161.245.321.367.482.058-1.911.116-3.823.174-5.734.014-.448-.548-.639-.854-.354-1.352 1.266-2.704 2.533-4.057 3.799.202-.026.404-.052.606-.078-1.416-.706-2.831-1.412-4.247-2.117-.385-.192-.847.125-.734.565.485 1.891.866 3.802 1.232 5.719.119.633 1.083.365.963-.265z" fill="#1e7ec1"/><path d="m41.112 42.611c1.476-1.157 2.938-2.324 4.339-3.571-.285-.118-.569-.236-.854-.354.021 1.519.042 3.039.064 4.558.003.234.155.407.367.482 1.677.596 3.353 1.193 5.03 1.789-.04-.305-.08-.609-.119-.914-1.657.792-3.314 1.585-4.971 2.377-.146.07-.261.271-.248.432.131 1.623.261 3.246.392 4.869.285-.118.569-.236.854-.354-1.398-1.573-2.796-3.145-4.195-4.718-.105-.118-.335-.192-.486-.129-1.628.685-3.255 1.37-4.883 2.055.188.245.376.49.565.734.839-1.58 1.677-3.16 2.516-4.74.107-.202.079-.439-.078-.606-1.039-1.102-2.078-2.204-3.117-3.306-.162.279-.324.557-.486.836 1.523.222 3.046.443 4.568.665.629.092.901-.872.266-.964-1.523-.222-3.046-.443-4.568-.665-.473-.069-.856.443-.486.836 1.039 1.102 2.078 2.204 3.117 3.306-.026-.202-.052-.404-.078-.606-.839 1.58-1.677 3.16-2.516 4.74-.181.341.132.917.565.734 1.628-.685 3.255-1.37 4.883-2.055-.162-.043-.324-.086-.486-.129 1.398 1.573 2.796 3.145 4.195 4.718.278.312.888.075.854-.354-.131-1.623-.261-3.246-.392-4.869-.083.144-.165.288-.248.432 1.657-.792 3.314-1.585 4.971-2.377.42-.201.25-.782-.119-.914-1.677-.596-3.353-1.193-5.03-1.789.122.161.245.321.367.482-.021-1.519-.042-3.039-.064-4.558-.006-.45-.534-.638-.854-.354-1.401 1.247-2.863 2.414-4.339 3.571-.509.399.203 1.103.704.71z" fill="#e24122"/><path d="m8.603 26.283c.997-1.118 2.002-2.224 3.067-3.278.327-.323.063-.821-.354-.854-1.21-.094-2.42-.188-3.63-.282.161.122.321.245.482.367-.39-1.367-.781-2.734-1.171-4.1-.116-.406-.701-.5-.914-.119-.716 1.281-1.431 2.562-2.147 3.842.188-.077.376-.153.565-.23-1.287-.186-2.574-.373-3.862-.559-.464-.067-.87.449-.486.836 1.182 1.194 2.365 2.389 3.547 3.583-.026-.202-.052-.404-.078-.606-.629 1.263-1.257 2.526-1.886 3.788-.233.468.229.89.684.684 1.302-.588 2.604-1.177 3.906-1.765-.202-.026-.404-.052-.606-.078.826.884 1.652 1.769 2.477 2.653.282.302.889.082.854-.354-.099-1.225-.199-2.45-.298-3.676-.052-.637-1.052-.643-1 0 .099 1.225.199 2.45.298 3.676.285-.118.569-.236.854-.354-.826-.884-1.652-1.769-2.477-2.653-.163-.175-.406-.169-.606-.078-1.302.588-2.604 1.177-3.906 1.765.228.228.456.456.684.684.629-1.263 1.257-2.526 1.886-3.788.1-.202.085-.441-.078-.606-1.183-1.194-2.365-2.389-3.548-3.583-.162.279-.324.557-.486.836 1.287.186 2.574.373 3.862.559.22.032.448-.02.565-.23.716-1.281 1.431-2.562 2.147-3.842-.305-.04-.609-.08-.914-.119.39 1.367.781 2.734 1.171 4.1.064.225.259.35.482.367l3.63.282c-.118-.285-.236-.569-.354-.854-1.065 1.054-2.07 2.16-3.067 3.278-.427.48.277 1.189.707.708z"/></svg>