<svg enable-background="new 0 0 18.257 16.501" height="17" viewBox="0 0 18.257 16.501" width="19" xmlns="http://www.w3.org/2000/svg"><path d="m17.779 14.116c-1.336-.138-2.677-.221-4.011-.385-.372-.046-.692-.153-1.016.062-.426.283-.795.618-1.246.87-.822.46-1.734.75-2.672.836-3.543.326-6.926-1.913-7.685-5.443-.341-1.594-.119-3.331.778-4.71.924-1.422 2.36-2.535 3.837-3.334 1.46-.79 3.072-1.226 4.733-.917 1.691.314 3.242 1.287 4.175 2.743.589.92.941 1.986 1.05 3.072.058.572.056 1.156-.027 1.725-.069.472-.365 1.037-.326 1.506.039.459.349.989.522 1.42.14.347.287.692.439 1.034.338.758.691 1.509 1.017 2.273.251.59 1.113.081.863-.505-.289-.679-.598-1.348-.903-2.02-.134-.296-.266-.593-.389-.893-.164-.399-.481-.943-.501-1.37-.021-.43.214-.964.271-1.4.064-.485.086-.971.057-1.46-.054-.912-.243-1.814-.587-2.661-1.296-3.193-4.701-5.035-8.089-4.453-1.595.275-3.122 1.104-4.406 2.066-1.264.947-2.467 2.127-3.096 3.602-1.297 3.042-.297 6.822 2.26 8.892 3.131 2.534 7.585 2.411 10.633-.166-.118.049-.236.098-.354.146 1.555.202 3.115.308 4.673.469.64.067.635-.934-0-.999z"/></svg>