<svg enable-background="new 0 0 57.047 34.986" height="35" viewBox="0 0 57.047 34.986" width="58" xmlns="http://www.w3.org/2000/svg"><path d="m.035 13.816c1.196 6.05 2.392 12.101 3.588 18.151.157.795 1.105 1.251 1.845 1.048.83-.228 1.205-1.048 1.048-1.845-1.196-6.05-2.392-12.101-3.588-18.151-.157-.795-1.105-1.251-1.845-1.048-.83.228-1.205 1.048-1.048 1.845z"/><path d="m3.078 21.139c2.774-.36 5.677.357 7.804 2.241 2.123 1.881 3.304 4.606 3.277 7.422-.019 1.931 2.981 1.933 3 0 .034-3.563-1.474-7.168-4.156-9.543-2.68-2.373-6.36-3.582-9.925-3.12-.803.104-1.5.615-1.5 1.5 0 .73.691 1.605 1.5 1.5z"/><path d="m20.703 26.3c2.828-2.207 5.657-4.414 8.485-6.621.532-.415.519-1.28.235-1.818-1.04-1.968-3.185-3.191-5.391-3.251-2.297-.063-4.414 1.215-5.738 3.031-2.815 3.861-1.115 9.621 2.815 11.992 2.32 1.4 5.221 1.457 7.619.233.721-.368.93-1.381.538-2.052-.429-.733-1.328-.908-2.052-.538-1.617.826-3.645.541-5.053-.537-1.532-1.172-2.347-3.052-2.243-4.973.097-1.778 1.253-3.437 2.884-3.97 1.563-.511 3.247.098 4.03 1.58.078-.606.156-1.212.235-1.818-2.828 2.207-5.657 4.414-8.485 6.621-.639.499-.523 1.598 0 2.121.63.631 1.48.5 2.121 0z"/><path d="m30.182 15.596c.371 2.31.792 4.623 1.863 6.729 1.031 2.027 2.739 3.645 4.875 4.45 2.115.797 4.439.388 6.188-1.016 1.553-1.247 2.527-3.209 2.813-5.16.425-2.9-.42-5.721-1.322-8.448-.254-.769-1.036-1.27-1.845-1.048-.752.207-1.303 1.073-1.048 1.845.651 1.969 1.351 3.993 1.343 6.09-.005 1.403-.425 2.92-1.376 3.961-.963 1.054-2.194 1.439-3.606 1.002-1.455-.45-2.612-1.65-3.334-3.004-1.01-1.893-1.322-4.108-1.658-6.2-.129-.8-1.125-1.245-1.845-1.048-.852.236-1.177 1.044-1.048 1.847z"/><path d="m37.509 34.918c3.361-.985 6.414-3.384 7.92-6.584 1.551-3.295 1.464-7.033.824-10.544-.338-1.855-.864-3.673-1.512-5.443-.278-.76-1.018-1.275-1.845-1.048-.733.201-1.328 1.081-1.048 1.845 1.281 3.5 2.315 7.567 1.697 11.225-.618 3.651-3.247 6.605-6.834 7.656-1.849.542-1.062 3.438.798 2.893z"/><path d="m47.248 1.891c.589 4.139 1.177 8.277 1.766 12.416.114.803 1.135 1.243 1.845 1.048.863-.237 1.162-1.04 1.048-1.845-.589-4.139-1.177-8.277-1.766-12.416-.114-.803-1.135-1.243-1.845-1.048-.864.237-1.163 1.04-1.048 1.845z"/><path d="m49.733 18.169c.078.45.155.9.233 1.35.046.195.136.365.268.51.106.163.246.292.421.386.172.11.358.169.558.178.199.045.399.036.598-.027.119-.05.239-.101.358-.151.225-.133.405-.313.538-.538.05-.119.101-.239.151-.358.071-.266.071-.532 0-.798-.078-.45-.155-.9-.233-1.35-.046-.195-.136-.365-.268-.51-.106-.163-.246-.292-.421-.386-.172-.11-.358-.169-.558-.178-.199-.045-.399-.036-.598.027-.119.05-.239.101-.358.151-.225.133-.405.313-.538.538-.05.119-.101.239-.151.358-.072.266-.072.532 0 .798z"/><path d="m53.923 15.635c.041.401.082.802.123 1.203-.008.207.035.399.129.578.06.186.164.347.31.483.136.146.297.25.483.31.179.094.371.137.578.129.133-.018.266-.036.399-.054.254-.071.475-.2.662-.386.078-.101.156-.202.235-.304.136-.234.204-.486.205-.757-.041-.401-.082-.802-.123-1.203.008-.207-.035-.399-.129-.578-.06-.186-.164-.347-.31-.483-.136-.146-.297-.25-.483-.31-.179-.094-.371-.137-.578-.129-.133.018-.266.036-.399.054-.254.071-.475.2-.662.386-.078.101-.156.202-.235.304-.135.234-.204.487-.205.757z"/></svg>