<svg xmlns="http://www.w3.org/2000/svg" viewBox="0 0 600 600" width="600" height="600"><g transform="translate(134.0 463.0) rotate(0.0 154.5 18.5) scale(4.060660218671152 4.269066574362524)"><svg width="76.096" height="8.667" viewBox="0 0 76.096 8.667"><path d="M.767 8.621C9.938 4.674 19.757 2.247 29.7 1.374c9.884-.868 19.901-.228 29.584 1.942a92.868 92.868 0 0 1 16.044 5.148c.585.249 1.096-.612.505-.863-9.295-3.955-19.189-6.38-29.252-7.243a97.715 97.715 0 0 0-30.163 2.107A94.166 94.166 0 0 0 .262 7.758c-.589.253-.081 1.115.505.863z" fill="#2FB195"/></svg></g><g transform="translate(134.0 129.0) rotate(0.0 181.5 165.0) scale(4.161316947909024 4.151517820075734)"><svg width="87.232" height="79.489" viewBox="0 0 87.232 79.489"><path d="M74.295 27.08c-.32-1.65-.836-3.244-1.494-4.79-2.182-5.03-5.95-9.193-10.842-11.703-4.737-2.43-10.159-3.296-15.444-3.044-5.481.262-10.91 1.676-15.853 4.05-5.653 2.715-10.568 6.771-13.844 12.167-4.009 6.602-5.32 14.526-3.796 22.086.781 3.874 2.284 7.635 4.428 10.957a15.638 15.638 0 0 0 5.894 5.368c5.019 2.627 11.024 2.781 16.527 2.058 5.396-.709 10.757-2.263 15.664-4.629 6.062-2.923 11.286-7.704 14.804-13.434 3.486-5.675 5.24-12.471 3.956-19.086z"/><path d="M41.12 22.969c-2.28-4.052-6.998-5.956-11.487-4.976-4.399.96-8.018 4.496-8.893 8.939-1.03 5.231 1.852 10.658 7.104 12.126 4.294 1.113 9.532-.187 12.434-3.659 2.865-3.43 2.992-8.608.842-12.43zm30.421 3.233c-.96-4.4-4.496-8.018-8.939-8.893-5.23-1.03-10.657 1.852-12.125 7.103-1.113 4.294.187 9.532 3.659 12.433 3.43 2.866 8.608 2.994 12.431.843 4.05-2.279 5.954-6.997 4.974-11.486z" fill="#fcf1d5"/><path d="M67.047 24.535c-1.444-2.559-4.41-3.771-7.254-3.191-2.829.577-5.185 2.849-5.75 5.697-.668 3.364 1.178 6.82 4.544 7.778 2.729.697 6.048-.106 7.9-2.31 1.849-2.201 1.948-5.515.56-7.974zm-28.702 2.439c-.577-2.829-2.849-5.185-5.697-5.75-3.364-.668-6.82 1.178-7.778 4.544-.697 2.729.106 6.048 2.311 7.9 2.2 1.848 5.514 1.947 7.973.559 2.559-1.443 3.771-4.409 3.191-7.253z"/><g fill="#e24122"><path d="M43.514 34.634c-.215.457-.347.94-.294 1.448.05.481.222.927.447 1.352.419.791 1.083 1.458 1.953 1.728 1.771.549 3.533-.797 3.98-2.478a3.651 3.651 0 0 0-.286-2.649c-.301-.569-1.165-.064-.863.505.518.978.298 2.279-.478 3.063-.453.458-1.118.742-1.768.667-.594-.069-1.123-.472-1.45-.958-.438-.653-.732-1.419-.377-2.174.115-.244.068-.539-.179-.684-.218-.126-.57-.066-.685.18zm23.923 8.926c-.139-.947-.926-1.66-1.733-2.09-1.412-.753-3.182-1.005-4.745-.657-.734.163-1.457.5-1.99 1.04-.535.541-1.03 1.422-.751 2.193.437 1.208 2.188 1.442 3.272 1.581 1.364.174 2.806.223 4.173.033.519-.08 1.042-.238 1.394-.653.339-.401.456-.935.38-1.447zm-33.678-2.583c-1.505-.551-3.324-.361-4.782.247-.899.375-1.801.981-2.159 1.929-.2.531-.172 1.174.134 1.661.341.542.932.752 1.537.846 1.185.165 2.419.135 3.607.028 1.168-.105 2.89-.246 3.648-1.29 1.01-1.389-.789-2.984-1.985-3.421z"/></g><path d="M31.27 62.787c.544 5.357.603 10.744.654 16.123.002.205.153.441.367.482a4.83 4.83 0 0 0 2.214-.069c.621-.166.358-1.131-.266-.964a3.652 3.652 0 0 1-1.682.069l.367.482c-.051-5.38-.109-10.766-.654-16.123-.065-.634-1.066-.641-1 0zm8.627 0c.544 5.357.603 10.744.654 16.123.002.205.153.441.367.482a4.83 4.83 0 0 0 2.214-.069c.621-.166.358-1.131-.266-.964a3.652 3.652 0 0 1-1.682.069l.367.482c-.051-5.38-.109-10.766-.654-16.123-.065-.634-1.065-.641-1 0zm-5.77-50.455c-.209-.016-.423-.109-.614-.128-.073-.008.024.002.004.034.014-.021.045-.124.082-.175.322-.457.746-.825 1.181-1.173.931-.746 1.954-1.367 2.921-2.065 3.693-2.667 7.381-5.883 11.83-7.198.7-.207 3.298-.937 2.823.657-.348 1.166-1.663 1.71-1.937 2.955-.105.475.469.852.836.486a17.31 17.31 0 0 1 7.134-4.317c.941-.289 3.157-1.059 3.198.602.034 1.364-1.373 2.325-2.004 3.412-.291.503.37.982.785.606a11.98 11.98 0 0 1 6.019-2.936c1.072-.183 2.389-.279 3.251.516 1.003.925.345 2.062-.484 2.818-1.637 1.493-3.693 2.662-5.677 3.626a30.674 30.674 0 0 1-6.512 2.287c-2.514.579-4.986.627-7.568.601-3-.03-5.999-.144-8.996-.28a327.032 327.032 0 0 1-6.272-.328c-.643-.041-.64.959 0 1 5.232.334 10.485.578 15.727.612 1.276.008 2.556.008 3.83-.074 1.759-.112 3.507-.509 5.196-.995a31.418 31.418 0 0 0 6.705-2.802 29.636 29.636 0 0 0 3.133-2.032c.851-.632 1.769-1.312 2.216-2.307.474-1.056.15-2.222-.729-2.954-.994-.828-2.314-.892-3.544-.734-2.615.337-5.053 1.509-7.003 3.274l.785.606c.783-1.351 2.259-2.35 2.132-4.083C62.453.182 60.888-.199 59.496.082c-3.373.68-6.532 2.517-8.952 4.934l.836.486c.282-1.281 1.764-1.861 1.999-3.217.207-1.192-.728-1.963-1.84-2.021-1.221-.064-2.548.433-3.662.881-1.315.529-2.567 1.197-3.774 1.938-2.405 1.477-4.623 3.224-6.908 4.875-1.188.858-2.46 1.61-3.558 2.587-.466.414-1.113 1-1.119 1.68-.008.858.939 1.052 1.61 1.105.641.053.637-.947-.001-.998zM13.544 40.331c-1.788-1.706-3.925-3.249-6.239-4.154-.95-.371-2.048-.227-2.958.191-1.095.503-1.895 1.498-2.086 2.695-.298 1.867.688 3.725 1.734 5.195.86 1.209 2.531 3.298 4.269 2.344 1.227-.674.988-1.991.32-2.991-1.531-2.29-5.166-2.593-7.397-1.185-.467.295-.919.707-1.089 1.25-.262.835.052 1.886.406 2.645.969 2.082 3.103 3.412 5.01 4.533l.385-.914c-.906-.264-1.816-.593-2.736-.799-.629-.141-1.267-.002-1.821.32-1.076.626-1.311 1.667-.881 2.782.741 1.918 2.883 2.886 4.714 3.458 1.811.567 3.786.91 5.688.937.787.011 1.514-.302 2.209-.644.945-.464 1.839-1.031 2.714-1.614a59.478 59.478 0 0 0 4.185-3.069c.166-.133.186-.433.078-.606l-5.611-8.973-.813-1.301c-.34-.544-1.206-.043-.863.505l5.611 8.973.813 1.301.078-.606a59.094 59.094 0 0 1-2.744 2.059c-1.456 1.034-3.015 2.195-4.713 2.798-1.253.445-2.872.057-4.137-.179-1.795-.335-3.79-.838-5.228-2.026-.574-.474-1.393-1.423-1.208-2.253.134-.603 1.042-.992 1.596-.912.929.135 1.902.549 2.804.812.547.16.873-.627.385-.914-1.418-.834-2.881-1.733-3.931-3.026-.607-.748-1.609-2.445-.813-3.338.579-.65 1.64-.908 2.467-.994 1.085-.112 2.253.046 3.169.672.58.396 1.646 1.554 1.123 2.212-.955 1.201-2.657-1.048-3.109-1.672-1.273-1.761-2.93-5.073-.312-6.495.701-.381 1.606-.528 2.364-.235 2.17.841 4.19 2.329 5.86 3.923.465.446 1.174-.26.707-.705zm50.072 12.673c2.334 3.466 5.862 5.89 10.129 5.996 3.323.083 6.738-1.231 9.15-3.518 1.131-1.072 2.114-2.479 2.421-4.031.157-.794-.226-1.62-1.048-1.845-.738-.203-1.687.249-1.845 1.048a6.285 6.285 0 0 1-.192.699c-.12.378.09-.137-.028.077-.078.141-.142.29-.222.431-.134.236-.29.453-.441.677-.133.199.178-.197-.091.109-.107.122-.213.244-.324.362a9.382 9.382 0 0 1-1.041.947c.269-.215-.135.094-.215.149a11.69 11.69 0 0 1-1.741.999c-.078.036-.517.215-.217.099-.157.061-.314.123-.473.18-.362.129-.731.24-1.103.333-.337.084-.676.147-1.018.207-.063.011-.294.035.01 0l-.261.029a10.632 10.632 0 0 1-1.656.034c-.179-.01-.357-.029-.536-.044-.238-.021.233.038-.004.002a9.803 9.803 0 0 1-1.407-.315 10.264 10.264 0 0 1-.864-.304c-.147-.06.139.067-.103-.049-1.826-.876-3.154-2.097-4.292-3.787-.452-.671-1.321-.966-2.052-.538-.664.391-.99 1.378-.536 2.053z"/><path d="m84.397 48.562-.981 1.391a.503.503 0 0 0 .18.684.504.504 0 0 0 .385.05.564.564 0 0 0 .299-.23l.981-1.391a.503.503 0 0 0-.18-.684.504.504 0 0 0-.385-.05.56.56 0 0 0-.299.23zm1.313.715-1.033 1.21a.53.53 0 0 0-.146.354.51.51 0 0 0 .146.354.504.504 0 0 0 .708 0l1.033-1.21a.53.53 0 0 0 .146-.354.51.51 0 0 0-.146-.354.504.504 0 0 0-.354-.146c-.127.006-.269.046-.354.146z"/><path d="m86.479 50.408-2.373 1.408c-.225.133-.326.456-.179.684.146.226.443.322.684.179l2.373-1.408c.225-.133.326-.456.179-.684-.146-.226-.443-.322-.684-.179zm-5.21-.467c.109.079.238.154.334.249a1.21 1.21 0 0 0 .002.002l.074.059c.047.038.094.076.141.116.163.138.322.282.462.445l.043.052c.036.041-.082-.114-.025-.033a1.41 1.41 0 0 1 .125.202c.01.02.04.091.001-.002-.039-.092-.01-.024-.003-.002.011.032.02.065.027.098.025.12-.008-.14-.004-.019.001.029-.011.151.004.039.016-.114-.007.019-.015.047-.074.251.089.556.349.615a.51.51 0 0 0 .615-.349c.142-.484-.067-.932-.368-1.302-.347-.427-.817-.757-1.258-1.078-.099-.072-.273-.081-.385-.05a.511.511 0 0 0-.299.23c-.136.257-.046.516.18.681zM21.155 63.76c-.141.07-.282.14-.425.203.194-.085-.237.088-.292.108-.313.11-.632.203-.956.275-.091.02-.476.092-.394.08.096-.014-.247.024-.32.03a7.42 7.42 0 0 1-1.252-.025c.031.004.211.035.037.001-.144-.028-.287-.055-.429-.091a6.02 6.02 0 0 1-.699-.22c-.229-.088.172.086-.049-.023a7.018 7.018 0 0 1-.782-.447 4.217 4.217 0 0 1-.657-.573c-.905-.93-1.599-2.46-1.62-3.693a5.989 5.989 0 0 1 .011-.483c.004-.065.059-.439.02-.225.064-.352.162-.69.276-1.029.083-.244-.038.037.082-.189.069-.13.133-.261.206-.389a7.032 7.032 0 0 1 .398-.603c-.096.125-.032.039.033-.03a8.85 8.85 0 0 1 .745-.73c.131-.111-.014.01-.036.026a5.558 5.558 0 0 1 .672-.423c.069-.037.419-.192.285-.141-.138.053.221-.07.291-.09.155-.045.313-.077.471-.106-.331.062.056.007.184.005 1.928-.033 1.934-3.033 0-3-3.57.061-6.254 3.325-6.607 6.686-.402 3.832 2.524 7.936 6.335 8.647 2.074.387 4.114-.028 5.986-.961.725-.361.928-1.386.538-2.052-.432-.739-1.324-.901-2.052-.538z"/><path d="M23.883 65.193a4.125 4.125 0 0 1-.22.112c-.029.013-.161.092-.042.02-.029.017-.066.027-.098.039a3.773 3.773 0 0 1-.731.195c-.133.022.081-.007-.024.004l-.123.013c-.17.015-.34.017-.51.009a.503.503 0 0 0-.5.5c.013.281.22.487.5.5a4.31 4.31 0 0 0 2.253-.528c.23-.125.323-.462.179-.684a.511.511 0 0 0-.684-.18zm.25-1.519-2.093.792c-.244.092-.438.341-.349.615.077.238.353.448.615.349l2.093-.792c.244-.092.438-.341.349-.615-.077-.238-.353-.448-.615-.349z"/><path d="M23.29 62.703c-.435.207-.854.431-1.233.73-.31.245-.553.551-.786.868-.072.098-.081.273-.05.385a.511.511 0 0 0 .23.299.504.504 0 0 0 .385.05.573.573 0 0 0 .299-.23l.083-.112.027-.036-.051.066c.007-.02.034-.043.047-.059a3.468 3.468 0 0 1 .523-.524c-.142.116-.021.017.017-.01a3.842 3.842 0 0 1 .356-.225c.214-.123.436-.232.658-.338.237-.112.317-.471.179-.684-.157-.245-.43-.301-.684-.18z"/><path d="M21.155 63.76a9.951 9.951 0 0 1-.275.134c-.138.064-.224.098-.032.02a9.612 9.612 0 0 1-.566.21c-.376.125-.76.223-1.15.291-.047.008-.378.045-.148.025.235-.021-.137.009-.148.01a6.421 6.421 0 0 1-1.149-.003c-.05-.004-.369-.06-.141-.013.236.048-.124-.027-.138-.03a6.47 6.47 0 0 1-1.092-.326c.108.042.197.092.042.012-.103-.054-.208-.103-.31-.159a5.815 5.815 0 0 1-.696-.451c.257.191.024.012-.027-.033a6.35 6.35 0 0 1-.667-.67c-.023-.026-.241-.302-.131-.156.111.147-.102-.147-.121-.176a8.712 8.712 0 0 1-.226-.351c-.413-.667-1.359-.985-2.052-.538-.669.431-.98 1.338-.538 2.052 1.129 1.824 2.881 3.266 5.021 3.691 2.09.415 4.17-.003 6.058-.947.703-.352.957-1.402.538-2.052-.463-.721-1.3-.917-2.052-.54z"/><path d="M21.001 64.988a.5.5 0 0 1-.494-.426l-.257-1.728a.5.5 0 1 1 .989-.147l.257 1.728a.5.5 0 0 1-.495.573z"/></svg></g><g transform="translate(121.0 174.0) rotate(0.0 65.0 127.0) scale(4.120443740095087 4.055952989269289)"><svg width="31.55" height="62.624" viewBox="0 0 31.55 62.624"><path d="m31.512 60.034-.488-1.173a.498.498 0 0 0-.654-.269l-.476.198-19.17-55.214A5.252 5.252 0 0 0 7.88.483C6.477-.148 4.904-.166 3.454.434c-1.45.599-2.551 1.721-3.1 3.16a5.26 5.26 0 0 0 .171 4.2L26.268 60.3l-.453.189a.498.498 0 0 0-.269.654l.488 1.173a.505.505 0 0 0 .461.308.492.492 0 0 0 .192-.039l4.554-1.897a.5.5 0 0 0 .271-.654z" fill="#f6a50c"/></svg></g><g transform="translate(455.0 255.0) rotate(0.0 28.0 30.0) scale(4.341758412156923 4.49707690001499)"><svg width="12.898" height="13.342" viewBox="0 0 12.898 13.342"><circle cx="6.449" cy="6.449" fill="#2fb195" r="6.449"/><path d="M7.252 13.342a.5.5 0 0 1-.333-.873 5.944 5.944 0 0 0 1.987-4.44c0-3.279-2.67-5.947-5.953-5.947-.244 0-.489.015-.723.045a.5.5 0 0 1-.127-.994c.276-.035.563-.053.85-.053 3.834 0 6.953 3.117 6.953 6.947a6.946 6.946 0 0 1-2.322 5.188.497.497 0 0 1-.332.127z"/></svg></g><g transform="translate(179.0 133.0) rotate(0.0 55.5 41.0) scale(4.64687905555323 4.562399154286986)"><svg width="23.887" height="17.973" viewBox="0 0 23.887 17.973"><path d="M23.383.396c-.592-.536-1.507-.523-2.021-.021L13.45 5.829l-1.538-.71c-2.887-1.726-5.785-1.446-7.75.749L1.274 9.09C.35 10.122-.097 11.452.016 12.833s.771 2.62 1.851 3.487l2.056 1.652.317-.3c.053-.05 5.341-5.06 5.992-5.639 4.574-4.072 12.938-9.215 13.069-9.299a1.53 1.53 0 0 0 .082-2.338z" fill="#f9c8b7"/><path d="M2.495 13.948a2.033 2.033 0 0 0-.02 2.874l2.894-2.854a2.03 2.03 0 0 0-2.874-.02z"/></svg></g><g transform="translate(183.0 383.0) rotate(0.0 26.0 14.0) scale(3.8849458348898023 4.581901489117985)"><svg width="13.385" height="6.111" viewBox="0 0 13.385 6.111"><path d="M12.498 3.847a4.125 4.125 0 0 1-.22.112c-.029.013-.161.092-.042.02-.029.017-.066.027-.098.039a3.773 3.773 0 0 1-.731.195c-.133.022.081-.007-.024.004l-.123.013c-.17.015-.34.017-.51.009a.503.503 0 0 0-.5.5c.013.281.22.487.5.5a4.31 4.31 0 0 0 2.253-.528c.23-.125.323-.462.179-.684a.51.51 0 0 0-.684-.18zm.25-1.519-2.093.792c-.244.092-.438.341-.349.615.077.238.353.448.615.349l2.093-.792c.244-.092.438-.341.349-.615-.077-.238-.353-.448-.615-.349z"/><path d="M11.397 1.149c-.278.277-.546.563-.795.866-.249.304-.482.621-.714.938-.072.099-.081.273-.05.385a.511.511 0 0 0 .23.299.504.504 0 0 0 .385.05.573.573 0 0 0 .299-.23c.108-.147.215-.295.325-.44l.075-.099c.049-.065-.008.014-.026.033.014-.015.025-.032.038-.048l.161-.201c.244-.296.507-.576.78-.847.186-.185.199-.525 0-.707a.512.512 0 0 0-.708.001z"/><path d="M9.77 2.413a9.951 9.951 0 0 1-.275.134c-.138.064-.224.098-.032.02a8.14 8.14 0 0 1-1.716.502c-.047.008-.378.045-.148.025.235-.021-.137.009-.148.01a6.421 6.421 0 0 1-1.148-.003c-.05-.004-.369-.06-.141-.013.236.048-.124-.027-.138-.03a6.563 6.563 0 0 1-1.092-.326c.108.042.197.092.042.011-.104-.054-.208-.103-.31-.159a5.644 5.644 0 0 1-.695-.451c.256.191.024.011-.028-.033a6.586 6.586 0 0 1-.667-.671c-.022-.027-.24-.302-.131-.156.111.147-.101-.148-.121-.176a9.969 9.969 0 0 1-.226-.351C2.383.079 1.437-.239.744.208.075.639-.236 1.546.206 2.26c1.129 1.824 2.881 3.266 5.021 3.691 2.09.415 4.17-.003 6.058-.947.703-.352.957-1.402.538-2.052-.464-.72-1.301-.916-2.053-.539z"/><path d="M9.616 3.641a.5.5 0 0 1-.494-.426l-.256-1.727a.5.5 0 1 1 .989-.147l.257 1.727a.5.5 0 0 1-.496.573z"/></svg></g></svg>