<svg enable-background="new 0 0 61.29 82.084" height="83" viewBox="0 0 61.29 82.084" width="62" xmlns="http://www.w3.org/2000/svg"><path d="m44.817 58.292c.025-.102.058-.2.096-.298.019-.05-.055.125-.011.027.01-.023.021-.045.032-.068.022-.045.046-.089.071-.132.027-.047.056-.093.086-.138.026-.038.136-.168.025-.041.066-.076.128-.154.2-.225.036-.035.072-.07.11-.103.035-.031.174-.132.035-.033.082-.058.163-.116.25-.166.043-.025.088-.049.133-.071.022-.011.045-.021.068-.032.084-.041-.109.042-.027.011.102-.039.204-.073.31-.098.254-.062.431-.364.349-.615-.086-.264-.343-.415-.615-.349-.998.242-1.828 1.069-2.076 2.064-.063.253.082.554.349.615.259.06.547-.077.615-.348z" fill="#1e7ec1"/><path d="m48.754 58.358c.552.455.672 1.475.602 2.211-.004.046-.003.053-.028.163-.007.031-.06.242-.026.115-.006.021-.032.074-.049.088.126-.104.035-.043.021-.035.007-.004.218-.136.219-.087 0 0-.335.013-.349.014-.835.033-1.669.066-2.504.099-.813.032-1.633.1-2.446.094-.148-.001-.199-.036-.328-.069.092.024.001-.013.023.016.044.059-.034-.058-.033-.058-.061-.135.024.094-.023-.056-.01-.033-.019-.066-.028-.099-.029-.104-.028-.128-.035-.258-.022-.447.058-.886.197-1.31.06-.182.117-.326.223-.498.018-.029.036-.058.055-.085.091-.129-.055.07.037-.043.017-.02.04-.041.06-.058-.099.085.117-.058.152-.073.664-.277 1.427-.104 2.116-.056.395.027.79-.019 1.184-.048.343-.026.767-.1 1.062.111.22.157.557.039.684-.179.147-.251.041-.526-.179-.684-.714-.511-1.742-.18-2.55-.191-.812-.011-1.599-.202-2.404.026-.613.174-.994.528-1.245 1.103-.243.555-.381 1.164-.394 1.771-.011.495.069 1.084.46 1.431.315.28.739.317 1.142.303.505-.017 1.009-.04 1.514-.06 1.009-.04 2.018-.08 3.028-.119.333-.013.718.037 1-.173.184-.137.287-.345.354-.56.178-.567.121-1.224.016-1.797-.108-.592-.34-1.261-.819-1.656-.208-.172-.503-.204-.707 0-.179.177-.211.534-.002.707z"/><path d="m34.278 63.577c.052.563.093 1.125.111 1.689.1 3.107-.183 6.645-3.232 8.821-4.42 3.155-9.872 2.053-13.848-.742-16.041-11.277-16.282-42.432 5.418-50.683 3.657-1.391 8.432-1.593 12.267-.96 4.002.66 7.808 2.682 9.474 5.875 2.344 4.493.003 9.918-3 14.308-3.003 4.391-6.786 8.674-7.543 13.668-.406 2.679.105 5.346.353 8.024z" fill="#1e7ec1"/><path d="m33.778 63.577c.226 2.523.344 5.369-.838 7.694-1.294 2.544-4.196 3.988-6.964 4.198-4.836.367-9.137-2.533-12.253-5.97-5.086-5.611-7.504-13.383-7.423-20.878.084-7.663 2.884-15.383 8.617-20.621 3.344-3.055 7.605-5.254 12.105-5.895 5.358-.763 12.259-.168 16.015 4.236 4.17 4.89.605 11.583-2.481 15.983-1.737 2.477-3.626 4.866-5.086 7.524-1.48 2.694-2.3 5.533-2.181 8.624.066 1.709.326 3.404.489 5.105.061.635 1.061.641 1 0-.178-1.862-.475-3.719-.502-5.592-.026-1.717.244-3.38.834-4.993 1.083-2.96 2.996-5.556 4.825-8.09 3.316-4.596 7.739-10.768 5.351-16.733-2.196-5.487-8.81-7.22-14.153-7.307-3.092-.05-6.229.372-9.105 1.539-2.014.817-3.931 1.857-5.684 3.145-6.654 4.89-10.316 12.728-10.946 20.852-.615 7.931 1.554 16.257 6.533 22.53 2.819 3.552 6.742 6.722 11.337 7.42 2.915.443 5.914-.163 8.299-1.943 2.136-1.594 3.062-4.042 3.278-6.627.116-1.396.058-2.806-.067-4.199-.057-.637-1.057-.643-1-.002z" fill="#1e7ec1"/><path d="m40.799 30.173c2.782-3.544 5.565-7.088 8.347-10.632.5-.637.621-1.5 0-2.121-.52-.52-1.618-.641-2.121 0-2.782 3.544-5.565 7.088-8.347 10.632-.5.637-.621 1.5 0 2.121.519.52 1.618.641 2.121 0z" fill="#1e7ec1"/><path d="m22.606 13.928c.492 3.742.984 7.484 1.477 11.225.106.803.614 1.5 1.5 1.5.728 0 1.606-.691 1.5-1.5-.492-3.742-.984-7.484-1.477-11.225-.106-.803-.614-1.5-1.5-1.5-.728 0-1.606.691-1.5 1.5z" fill="#1e7ec1"/><path d="m47.558 7.3c-6.274 2.531-7.354 10.955-2.01 14.965 4.448 3.337 11.167 1.779 13.991-2.921 4.649-7.742-4.621-15.012-11.981-12.044z" fill="#1e7ec1"/><path d="m47.425 6.818c-3.491 1.444-5.812 4.785-5.806 8.591.007 3.911 2.562 7.382 6.256 8.633 3.895 1.318 8.506-.012 11.154-3.142 1.353-1.6 2.256-3.653 2.26-5.769.004-1.847-.693-3.611-1.831-5.05-2.777-3.51-7.87-4.899-12.033-3.263-.592.233-.334 1.2.266.964 3.345-1.315 7.275-.569 9.953 1.827 1.224 1.095 2.148 2.509 2.501 4.124.398 1.822-.057 3.692-.991 5.278-1.889 3.207-5.784 4.987-9.452 4.445-3.534-.522-6.424-3.241-6.987-6.791-.591-3.725 1.497-7.445 4.977-8.883.585-.242.328-1.21-.267-.964z" fill="#1e7ec1"/><path d="m16.828 15.131c2.979 3.929 10.32 3.841 13.761.598 4.974-4.689 1.463-13.931-5.015-15.092-7.791-1.398-13.708 7.948-8.746 14.494z" fill="#1e7ec1"/><path d="m16.475 15.484c2.52 3.243 7.457 3.777 11.138 2.529 1.836-.623 3.462-1.733 4.531-3.371 1.002-1.535 1.406-3.416 1.271-5.234-.275-3.702-2.583-7.326-6.065-8.767-3.644-1.508-7.889-.257-10.404 2.699-2.914 3.424-3.264 8.397-.548 12.043.38.51 1.248.012.863-.505-2.18-2.927-2.291-6.765-.334-9.842 1.876-2.95 5.404-4.635 8.869-3.846 3.336.76 5.744 3.777 6.445 7.029.731 3.394-.649 6.821-3.821 8.388-3.503 1.731-8.705 1.428-11.238-1.831-.394-.506-1.098.206-.707.708z" fill="#1e7ec1"/><path d="m57.208 16.288c.253-1.217-.088-2.486-.655-4.018-1.365-3.687-5.719-4.043-8.856-2.14-2.137 1.297-2.876 4.324-1.859 6.608.909 2.042 3.314 3.146 5.412 3.446 1.848.265 3.323-.18 4.608-1.528.769-.806 1.185-1.576 1.35-2.368z" fill="#fcf1d5"/><path d="m57.69 16.421c.281-1.513-.153-3.025-.711-4.428-.434-1.093-1.167-2.031-2.174-2.651-1.987-1.223-4.553-1.005-6.598-.052-2.381 1.11-3.629 3.597-3.248 6.186.406 2.763 2.824 4.456 5.397 5.048 1.442.332 2.959.347 4.305-.334 1.442-.73 2.667-2.19 3.029-3.769.144-.626-.82-.894-.964-.266-.287 1.249-1.195 2.369-2.292 3.019-.973.576-2.1.675-3.201.504-2.145-.333-4.499-1.49-5.148-3.72-.595-2.045.165-4.427 2.052-5.507 1.615-.924 3.698-1.297 5.467-.598.98.387 1.762 1.116 2.244 2.049.63 1.22 1.133 2.876.878 4.253-.117.629.847.899.964.266z" fill="#fcf1d5"/><path d="m18.222 7.793c-.248.695-.376 1.452-.23 2.175 1.569 7.777 14.12 6.313 11.624-1.88-1.596-5.244-9.518-5.553-11.394-.295z" fill="#fcf1d5"/><path d="m17.74 7.66c-.935 2.768.708 5.798 3.214 7.096 1.975 1.023 4.425 1.115 6.444.163 2.089-.985 3.238-3.101 3.015-5.389-.281-2.89-2.208-5.257-5.088-5.869-3.191-.678-6.438.894-7.585 3.999-.223.605.743.865.964.266.869-2.352 3.23-3.609 5.672-3.403 2.492.211 4.419 1.949 4.934 4.378.405 1.909-.182 3.838-1.899 4.878-1.564.947-3.568 1.024-5.267.414-2.484-.892-4.328-3.639-3.441-6.267.208-.611-.758-.874-.963-.266z" fill="#fcf1d5"/><path d="m50.25 18.323c3.149.764 6.044-1.332 5.19-4.65-.792-3.075-4.897-4.056-7.011-1.792-1.846 1.977-.991 5.714 1.733 6.42.03.008.059.015.088.022z"/><path d="m50.117 18.805c1.913.447 4.066-.006 5.261-1.666 1.146-1.592.845-3.925-.389-5.373-1.144-1.343-3.081-1.902-4.779-1.483-1.837.453-3.119 2.034-3.253 3.906-.146 2.058 1.115 4.103 3.16 4.616.624.157.891-.807.266-.964-1.409-.353-2.33-1.629-2.426-3.057-.097-1.444.635-2.803 1.997-3.37 1.256-.523 2.808-.278 3.854.588 1.151.953 1.66 2.727 1.014 4.113-.774 1.662-2.786 2.113-4.439 1.727-.626-.147-.893.817-.266.963z"/><path d="m20.02 10.476c.121.468.312.915.568 1.313 2.279 3.55 8.531.8 6.876-3.487-1.069-2.772-4.834-3.902-6.825-1.349-.766.982-.929 2.319-.619 3.523z"/><path d="m19.538 10.609c.498 1.827 1.9 3.181 3.825 3.301 1.497.094 3.068-.59 4.002-1.765 1.094-1.376 1.106-3.224.229-4.72-.95-1.621-2.852-2.624-4.728-2.348-1.071.158-2.012.766-2.66 1.624-.841 1.114-.993 2.579-.668 3.908.153.625 1.117.36.964-.266-.43-1.758.354-3.73 2.211-4.218 1.408-.37 2.949.315 3.794 1.462.789 1.071 1.005 2.514.274 3.667-.61.962-1.762 1.579-2.888 1.655-1.694.114-2.952-.957-3.391-2.565-.169-.621-1.134-.358-.964.265z"/><path d="m29.906 26.342c-.284.382-.518.797-.793 1.184-.073.115-.113.239-.119.372-.03.133-.024.266.018.399.031.13.091.243.179.34.071.109.164.195.281.258.232.123.513.184.771.101.08-.034.159-.067.239-.101.15-.089.27-.208.359-.359.276-.387.509-.802.793-1.184.073-.115.113-.239.119-.372.03-.133.024-.266-.018-.399-.031-.13-.091-.243-.179-.34-.071-.109-.164-.195-.281-.258-.232-.123-.513-.184-.771-.101-.08.034-.159.067-.239.101-.151.089-.27.209-.359.359z" fill="#fcf1d5"/><path d="m32.054 27.166c-.117.742-.315 1.467-.461 2.202-.053.266-.04.531.101.771.121.207.359.405.598.46.256.058.543.046.771-.101.21-.135.409-.344.46-.598.146-.736.344-1.461.461-2.202.042-.133.048-.266.018-.399-.006-.133-.046-.257-.119-.372-.121-.207-.359-.405-.598-.46-.256-.058-.543-.046-.771.101-.205.132-.42.346-.46.598z" fill="#fcf1d5"/><path d="m30.499 21.934c-1.434 1.188-1.316 3.625.114 4.761 1.548 1.231 3.895.907 5.113-.626.704-.887 1.055-2.029.95-3.16-.025-.269-.212-.5-.5-.5-.251 0-.525.23-.5.5.136 1.462-.632 3.067-2.136 3.459-1.336.348-2.867-.367-3.049-1.826-.09-.719.154-1.437.715-1.902.208-.172.178-.529 0-.707-.206-.205-.499-.172-.707.001z"/><g fill="#1e7ec1"><path d="m16.748 71.342c-1.67 2.798-3.051 5.763-4.147 8.832.615-.349 1.23-.698 1.845-1.048-.452-.145-.9-.301-1.343-.472-.098-.038-.196-.077-.294-.116-.048-.019-.225-.091-.08-.03-.243-.102-.483-.212-.722-.323-.711-.329-1.649-.224-2.052.538-.35.662-.222 1.7.538 2.052 1.027.476 2.078.898 3.156 1.244.813.261 1.582-.31 1.845-1.048.994-2.783 2.248-5.44 3.845-8.115.403-.674.174-1.676-.538-2.052-.725-.383-1.623-.182-2.053.538z"/><path d="m28.106 72.636c-.549 1.048-1.003 2.207-.969 3.411.03 1.101.44 2.26 1.263 3.021 1 .924 2.322 1.152 3.629.902 1.077-.205 2.025-.837 2.904-1.459-.734-.299-1.469-.598-2.203-.896.105.691.283 1.364.533 2.017.143.375.332.687.689.896.322.188.795.268 1.156.151.712-.23 1.348-1.061 1.048-1.845-.25-.653-.428-1.326-.533-2.017-.14-.917-1.472-1.414-2.203-.896-.34.241-.681.481-1.039.694-.171.102-.348.189-.524.282-.292.155.25-.081-.039.017-.098.033-.193.067-.293.095-.097.027-.194.047-.293.069-.292.064.323-.001.001-.003-.083 0-.166.007-.249.006-.05 0-.099-.002-.149-.006-.133-.013-.132-.012.003.004.134.019.136.017.005-.007-.032-.008-.064-.016-.095-.024-.063-.017-.126-.037-.187-.059l.177.075c-.032-.04-.199-.111-.248-.139-.247-.144.224.232.032.022-.037-.041-.136-.176-.179-.186.064.014.209.298.054.062-.048-.073-.092-.147-.132-.224-.122-.234.03-.01.025.08.007-.131-.115-.37-.147-.506-.072-.304.015.361.005.05-.003-.088-.011-.175-.011-.262 0-.09.004-.18.011-.269.004-.054.008-.107.015-.161-.029.203-.033.248-.013.133.049-.192.083-.385.143-.575.032-.103.068-.206.106-.308.019-.051.039-.102.059-.152.042-.103.027-.067-.045.108.03-.187.199-.418.287-.585.364-.695.201-1.662-.538-2.052-.695-.367-1.667-.206-2.056.536z"/><path d="m4.457 19.39c-3.001 3.058-4.522 7.433-3.95 11.689.556 4.139 2.968 7.83 6.487 10.067.884.562 2.245.213 2.736-.718.522-.989.226-2.136-.718-2.736-.186-.118-.37-.239-.549-.366-.077-.054-.154-.109-.229-.166.155.122.142.11-.04-.036-.287-.245-.57-.493-.837-.76-.312-.311-.605-.639-.882-.981.236.291-.131-.181-.142-.197-.109-.154-.215-.31-.317-.469-.238-.37-.457-.753-.653-1.147-.084-.169-.164-.34-.242-.512.158.349-.056-.147-.083-.221-.153-.412-.284-.833-.391-1.26-.046-.183-.087-.367-.124-.552-.014-.07-.111-.679-.086-.479.025.197-.036-.43-.041-.506-.012-.195-.02-.39-.022-.586-.005-.423.014-.847.054-1.268.009-.097.019-.194.031-.291-.028.209-.024.193.013-.048.038-.192.07-.384.112-.576.091-.414.204-.823.337-1.225.072-.217.151-.43.233-.644.147-.384-.096.16.108-.241.193-.379.378-.756.598-1.12.218-.361.451-.719.712-1.051-.214.273.136-.151.18-.202.171-.197.35-.386.533-.572.734-.747.801-2.093 0-2.828-.792-.725-2.045-.795-2.828.002z"/><path d="m36.294 47.431c.802.051 1.603.115 2.402.194.382.038.764.079 1.146.123.208.024.416.05.624.075.678.083-.384-.065.239.032.343.054.685.111 1.023.192.153.037.305.076.455.122.083.025.54.201.224.061.164.073.324.158.478.25.089.053.479.342.126.058.231.185.443.394.637.617.131.151.183.267.038.041.088.138.183.27.267.411s.162.286.235.432c.024.049.199.468.102.212-.094-.247.082.249.1.303.042.131.082.263.117.396.042.159.08.319.112.481.006.032.088.58.049.244.188 1.583-.012 3.187-.2 4.76-.125 1.043 1.009 2.044 2 2 1.19-.053 1.866-.883 2-2 .424-3.545.496-7.254-1.992-10.109-1.155-1.325-2.816-2.027-4.52-2.3-1.872-.3-3.771-.474-5.662-.596-1.046-.067-2.046.968-2 2 .051 1.142.879 1.929 2 2.001z"/><path d="m46.166 58.797c.088-.382.127-.78.1-1.172-.009-.134-.05-.257-.146-.354-.087-.087-.229-.152-.354-.146-.129.006-.263.048-.354.146-.086.094-.156.222-.146.354.016.237.009.474-.022.709.006-.044.012-.089.018-.133-.015.111-.035.221-.06.33-.03.13-.018.269.05.385.061.104.18.203.299.23.128.029.272.023.385-.05.107-.07.2-.172.23-.299z"/><path d="m47.304 58.747c.019-.347.007-.695-.038-1.039.003-.069-.012-.133-.043-.193-.02-.062-.055-.116-.103-.161-.087-.087-.229-.152-.354-.146-.129.006-.263.048-.354.146-.083.09-.163.226-.146.354.044.345.057.692.038 1.039-.007.124.061.268.146.354.087.087.229.152.354.146.129-.006.263-.048.354-.146.092-.102.139-.217.146-.354z"/><path d="m48.381 58.716c.178-.731.074-1.506-.295-2.162-.128-.228-.46-.324-.684-.179-.231.149-.316.44-.179.684.02.035.039.07.057.106.016.032.029.081.051.109-.028-.069-.036-.085-.021-.05.006.014.011.028.017.042.014.037.028.075.04.114.047.143.079.291.099.44-.006-.044-.012-.089-.018-.133.026.21.027.421.001.631.006-.044.012-.089.018-.133-.012.09-.029.178-.05.266-.062.254.08.554.349.615.258.058.549-.078.615-.35z"/><path d="m6.297 21.749c.293.407.726.696 1.228.768.269.039.524.039.791-.023.27-.063.498-.195.715-.363.094-.073.146-.241.146-.354 0-.123-.054-.269-.146-.354-.095-.087-.22-.152-.354-.146-.142.006-.243.06-.354.146.132-.102.012-.013-.023.008-.036.022-.073.04-.11.059-.073.038.096-.035.039-.016-.02.006-.039.015-.059.021-.04.013-.08.024-.12.034-.05.013-.183.018-.015.01-.042.002-.083.008-.125.01-.042.001-.084.001-.126-.001-.054-.003-.177-.038-.018.002-.082-.021-.164-.032-.245-.059-.016-.005-.032-.011-.047-.017-.048-.018-.081-.055.026.012-.031-.02-.068-.033-.101-.051-.036-.02-.072-.042-.106-.066-.017-.012-.033-.025-.051-.036.117.074.062.049.033.023-.031-.028-.061-.056-.09-.087-.014-.015-.028-.031-.042-.047-.058-.064.071.097.017.021-.078-.108-.166-.193-.299-.23-.12-.033-.279-.018-.385.05-.21.138-.343.46-.179.686z"/><path d="m8.127 18.961c-.023.064-.047.128-.073.191.017-.04.034-.08.05-.119-.119.283-.274.548-.46.792.026-.034.052-.067.078-.101-.172.222-.369.424-.588.6-.093.075-.146.239-.146.354 0 .123.054.269.146.354.095.087.22.152.354.146.14-.006.245-.059.354-.146.579-.468 1.002-1.105 1.249-1.804.087-.247-.099-.558-.349-.615-.28-.065-.522.083-.615.348z"/><path d="m7.103 18.299c-.033.149-.079.295-.138.436.017-.04.034-.08.05-.119-.083.194-.19.376-.318.544.026-.034.052-.067.078-.101-.107.138-.228.264-.361.377-.093.079-.146.236-.146.354 0 .123.054.269.146.354.095.087.22.152.354.146.139-.006.248-.057.354-.146.472-.399.813-.974.945-1.577.029-.131.019-.267-.05-.385-.061-.104-.18-.203-.299-.23-.252-.06-.555.073-.615.347z"/><path d="m5.692 18.051c-.039.131-.085.259-.138.385.017-.04.034-.08.05-.119-.124.291-.283.564-.475.815.026-.034.052-.067.078-.101-.089.115-.183.224-.284.328-.182.188-.201.522 0 .707.197.181.513.201.707 0 .476-.492.828-1.093 1.026-1.749.075-.25-.09-.556-.349-.615-.269-.061-.534.081-.615.349z"/></g><path d="m.249 15.992c.535.382 1.07.763 1.605 1.145.1.071.271.082.385.05.116-.032.242-.122.299-.23.061-.116.092-.257.05-.385-.042-.13-.119-.219-.23-.299-.535-.382-1.07-.763-1.605-1.145-.1-.071-.271-.082-.385-.05-.116.032-.241.122-.298.23-.061.116-.092.257-.05.385.041.13.118.22.229.299z"/><path d="m3.303 12.061c.37.999.74 1.998 1.109 2.998.091.245.343.437.615.349.24-.078.446-.352.349-.615-.37-.999-.74-1.998-1.109-2.998-.091-.245-.343-.437-.615-.349-.24.078-.447.353-.349.615z"/><path d="m7.627 12.31c-.277.84-.371 1.748-.263 2.626.032.259.207.513.5.5.244-.011.534-.222.5-.5-.051-.411-.059-.825-.02-1.237.004-.046.01-.091.015-.137.007-.06.007-.061 0-.004.003-.023.007-.045.01-.068.015-.098.033-.196.054-.294.044-.21.101-.417.168-.62.082-.249-.095-.557-.349-.615-.275-.063-.527.083-.615.349z"/><path d="m27.827 36.756c-.734.282-1.468.481-2.221.757-.138.051-.292.101-.429.047-.19-.075-.252-.307-.29-.507-.136-.721-.273-1.442-.409-2.163-.049-.259-.098-.53-.024-.783.073-.253.31-.48.572-.449.123.015.233.082.338.149.9.574 1.893.967 2.776 1.573.279.191.571.493.478.818-.058.202-.251.334-.444.417-.116.05-.231.096-.347.141z"/><path d="m27.694 36.273c-.753.287-1.528.521-2.291.782-.011.004-.081.016-.084.028.006-.02.102.058.096.055.076.03.015.034.008-.004.006.036-.016-.052-.015-.047-.057-.183-.079-.38-.114-.568-.076-.401-.151-.801-.227-1.202-.062-.327-.169-.673-.147-1.008.004-.068.009-.069.051-.131.032-.048.011-.017.004-.008-.015.019.036-.024.04-.026-.024.012-.044.015-.064 0 .069.05.153.089.226.135.645.402 1.337.72 1.999 1.093.297.167.699.344.912.619-.006-.008.048.069.035.049-.006-.009.018.086.014.037-.005-.052.04-.037-.021.001-.092.057-.284.142-.422.195-.252.098-.426.336-.349.615.066.24.362.448.615.349.458-.178.998-.375 1.14-.906.147-.551-.211-1.016-.629-1.326-.799-.593-1.743-.965-2.595-1.471-.434-.258-.892-.552-1.39-.239-.451.284-.612.798-.555 1.308.061.543.191 1.083.292 1.62.045.24.091.481.136.721.046.243.082.492.211.708.166.28.459.44.785.425.303-.014.603-.165.888-.26.573-.192 1.152-.366 1.717-.581.252-.096.426-.337.349-.615-.066-.24-.361-.444-.615-.348z"/><path d="m26.459 36.686c-.603-1.405-3.018 1.849-3.36 2.268-.945 1.155-1.804 2.414-2.565 3.755-1.49 2.625-2.606 5.567-3.256 8.657-.075.355-.144.719-.114 1.083.034.412.194.792.355 1.157.852 1.933 1.836 3.781 2.936 5.519 1.329-1.806 2.837-3.416 4.483-4.784-.932-5.777-.406-11.889 1.489-17.308.039-.111.078-.24.032-.347z"/><path d="m26.891 36.434c-1.12-2.297-4.417 2.471-5.051 3.335-1.347 1.834-2.447 3.838-3.323 5.936-.456 1.093-.851 2.21-1.179 3.348-.295 1.025-.717 2.209-.678 3.287.043 1.182.806 2.391 1.322 3.423.62 1.238 1.303 2.443 2.041 3.615.215.342.641.3.863 0 1.255-1.692 2.705-3.117 4.24-4.545.382-.356.298-.564.223-1.075-.082-.559-.149-1.12-.202-1.682-.097-1.027-.15-2.057-.159-3.088-.018-2.129.147-4.261.51-6.359.18-1.043.407-2.078.682-3.1.136-.507.284-1.011.444-1.512.137-.427.376-.875.334-1.33-.058-.636-1.059-.642-1 0 .031.334-.199.753-.299 1.064-.114.357-.222.716-.324 1.077-.205.726-.386 1.458-.543 2.196-.31 1.456-.529 2.933-.661 4.416-.269 3.015-.148 6.047.324 9.035.043-.162.086-.324.129-.486-1.718 1.441-3.226 3.086-4.561 4.885h.863c-1.089-1.731-2.067-3.538-2.889-5.412-.207-.473-.378-.924-.329-1.449.05-.54.211-1.085.342-1.611.243-.975.534-1.939.871-2.885 1.16-3.257 2.908-6.212 5.104-8.875.209-.254 1.832-2.131 2.041-1.702.284.577 1.146.07.865-.506z"/><path d="m57.959 62.019c.469 3.607.97 6.945.446 10.604-.092.64-.251 1.305-.685 1.785-1.548 1.711-4.514.991-6.532 1.109-3.027.176-6.055.32-9.084.432-1.518.056-7.441.356-7.659-1.948-.231-2.444-.365-4.897-.402-7.351-.027-1.751-.288-3.825.813-5.327.269-.367.69-.588 1.109-.764 3.179-1.33 7.017-.627 10.349-.587 3.197.038 6.395.076 9.592.115.455.005.941.02 1.316.278.515.35.657 1.036.737 1.654z"/><path d="m57.459 62.019c.355 2.721.749 5.454.655 8.206-.041 1.206.046 3.02-.86 3.948-.692.708-1.767.858-2.708.89-.971.033-1.94-.068-2.912-.06-1.334.011-2.673.139-4.005.206-2.188.109-4.379.225-6.57.274-1.463.033-2.98.027-4.407-.332-.52-.131-1.188-.317-1.534-.766-.22-.285-.198-.653-.228-.996-.068-.774-.126-1.55-.175-2.325-.087-1.388-.141-2.778-.168-4.169-.022-1.169-.146-2.372.039-3.532.081-.509.226-1.024.493-1.469.383-.638 1.03-.887 1.71-1.107 1.212-.391 2.483-.516 3.751-.534 1.406-.02 2.809.091 4.212.164 1.503.078 3.009.073 4.513.091 1.64.02 3.279.039 4.919.059.754.009 1.632-.099 2.373.065.731.161.832.89.92 1.523.089.635 1.052.365.964-.266-.163-1.171-.667-2.126-1.944-2.271-1.561-.177-3.202-.062-4.772-.08-3.046-.036-6.079-.093-9.121-.238-1.375-.065-2.756-.084-4.124.099-1.216.163-2.765.443-3.713 1.291-.898.804-1.171 2.153-1.247 3.3-.087 1.326.014 2.684.053 4.011.047 1.595.136 3.188.265 4.779.072.892.022 1.828.733 2.475 1.169 1.063 3.125 1.154 4.616 1.217 4.75.202 9.5-.561 14.249-.412 1.179.037 2.424.024 3.516-.482 1.287-.596 1.788-1.719 1.971-3.063.476-3.51-.008-7.01-.462-10.494-.084-.631-1.085-.639-1.002-.002z"/><path d="m51.66 26.598c.94-.344 1.908-.598 2.895-.762-.188-.245-.376-.49-.565-.734-.265.567-.496 1.148-.686 1.744-.125.393.263.677.615.615.812-.143 1.614-.332 2.405-.567.615-.183.353-1.148-.266-.964-.79.235-1.593.424-2.405.567.205.205.41.41.615.615.164-.514.356-1.017.585-1.506.194-.414-.123-.807-.565-.734-.988.163-1.955.418-2.895.762-.253.093-.425.339-.349.615.068.245.361.443.616.349z" fill="#e24122"/><path d="m16.967 17.409c-.495-.618-1.079-1.149-1.728-1.602-.161-.113-.411-.076-.555.039-.168.134-.214.318-.179.526.121.723.148 1.462.103 2.195.285-.118.569-.236.854-.354-.655-.531-1.311-1.061-1.966-1.592-.21-.17-.502-.205-.707 0-.176.176-.211.536 0 .707.655.531 1.311 1.061 1.966 1.592.339.275.825.102.854-.354.051-.825-.002-1.646-.138-2.461-.245.188-.49.376-.734.565.562.393 1.084.895 1.526 1.446.169.211.531.176.707 0 .205-.209.166-.496-.003-.707z" fill="#e24122"/></svg>