<svg enable-background="new 0 0 64.674 56.481" height="57" viewBox="0 0 64.674 56.481" width="65" xmlns="http://www.w3.org/2000/svg"><g fill="#f6a50c"><path d="m47.525 14.938c.439-3.626-.613-7.385-2.763-10.325-2.583-3.533-6.878-4.13-11.073-4.113 5.215 3.189 6.975 10.044 5.074 15.695-.828 2.461-2.506 4.711-4.388 6.469-1.007.94-2.134 1.779-3.386 2.364-1.389.649-2.891.979-4.417.891 2.002 1.775 5.101 2.383 7.672 2.133 1.783-.173 3.537-.645 5.167-1.39 4.63-2.118 7.51-6.733 8.114-11.724z"/><path d="m48.025 14.938c.463-4.096-.853-8.811-3.839-11.757-2.762-2.725-6.802-3.188-10.497-3.181-.505.001-.669.673-.252.932 3.344 2.08 5.272 5.794 5.537 9.676.13 1.911-.118 3.843-.76 5.649-.784 2.203-2.232 4.154-3.897 5.773-2.11 2.052-4.726 3.524-7.745 3.39-.417-.018-.681.571-.354.854 3.094 2.668 7.597 2.772 11.337 1.627 3.7-1.133 6.755-3.595 8.6-7.004 1.003-1.854 1.606-3.874 1.87-5.959.081-.637-.92-.631-1 0-.42 3.318-1.883 6.523-4.3 8.861-2.633 2.546-6.494 3.961-10.149 3.796-2.015-.091-4.1-.692-5.649-2.028-.118.285-.236.569-.354.854 2.773.123 5.316-1.006 7.42-2.753 1.944-1.614 3.642-3.675 4.705-5.976 1.792-3.881 1.734-8.561-.104-12.413-1.023-2.144-2.636-3.954-4.652-5.209-.085.309-.169.619-.253.93 3.421-.006 7.225.357 9.79 2.887 2.815 2.777 3.981 7.202 3.546 11.05-.072.639.928.634 1 .001z"/><path d="m51.22 33.982c2.034-2.231 4.068-4.463 6.102-6.694-.075 2.152.292 3.419.216 5.571 2.656-.332 4.312-.663 6.641-.885-2.324 2.103-4.427 4.095-7.171 6.051.085 2.325.17 4.65.256 6.975-1.133-1.624-2.267-3.249-3.4-4.873-.26-.373-.575-.78-1.027-.831-.341-.039-.665.14-.962.313-1.717 1.001-3.435 2.001-5.152 3.002 1.026-1.788 2.052-3.575 3.078-5.363-1.393-.923-2.786-1.845-4.179-2.768 2.171-.519 4.342-1.038 6.512-1.557"/><path d="m51.574 34.336c2.034-2.231 4.068-4.463 6.102-6.694-.285-.118-.569-.236-.854-.354-.052 1.863.269 3.708.216 5.571-.007.246.236.533.5.5 2.216-.28 4.417-.668 6.641-.885-.118-.285-.236-.569-.354-.854-2.024 1.833-4.023 3.701-6.209 5.343-.439.33-1.095.579-1.104 1.186-.011.744.055 1.498.082 2.242.056 1.536.113 3.072.169 4.608.311-.084.621-.168.932-.252-.779-1.117-1.558-2.234-2.337-3.35-.387-.554-.762-1.119-1.163-1.664-.265-.36-.568-.708-1.002-.86-1.039-.363-2.242.695-3.073 1.179-1.216.709-2.433 1.418-3.649 2.127l.684.684c1.026-1.788 2.052-3.575 3.078-5.363.14-.244.048-.534-.179-.684-1.393-.923-2.786-1.845-4.179-2.768-.04.305-.08.609-.119.914 2.171-.519 4.342-1.038 6.512-1.557.626-.15.361-1.114-.266-.964-2.171.519-4.342 1.038-6.512 1.557-.441.105-.461.688-.119.914 1.393.923 2.786 1.845 4.179 2.768-.06-.228-.12-.456-.179-.684-1.026 1.788-2.052 3.575-3.078 5.363-.248.433.249.937.684.684 1.002-.584 2.003-1.168 3.005-1.751.501-.292 1.002-.584 1.503-.876.398-.232 1.038-.793 1.501-.531.378.214.629.754.873 1.103.331.474.661.948.992 1.421.661.948 1.322 1.895 1.983 2.843.265.38.951.279.932-.252-.085-2.325-.17-4.65-.256-6.975-.083.144-.165.288-.248.432 2.585-1.854 4.919-3.998 7.272-6.129.305-.276.08-.896-.354-.854-2.224.217-4.425.605-6.641.885l.5.5c.052-1.863-.269-3.708-.216-5.571.012-.423-.562-.673-.854-.354-2.034 2.231-4.068 4.463-6.102 6.694-.433.476.272 1.185.707.708z"/><path d="m23.212 49.181c1.259-1.381 2.518-2.762 3.777-4.143-.047 1.332.181 2.116.134 3.448 1.644-.205 2.669-.41 4.11-.548-1.438 1.301-2.74 2.534-4.438 3.745.053 1.439.105 2.878.158 4.317-.701-1.005-1.403-2.011-2.104-3.016-.161-.231-.356-.483-.635-.514-.211-.024-.412.087-.595.194-1.063.619-2.126 1.239-3.188 1.858.635-1.106 1.27-2.213 1.905-3.319-.862-.571-1.724-1.142-2.586-1.713 1.343-.321 2.687-.642 4.03-.964"/><path d="m23.566 49.535 3.777-4.143c-.285-.118-.569-.236-.854-.354-.028 1.153.162 2.295.134 3.448-.006.246.235.534.5.5 1.371-.174 2.734-.412 4.11-.548-.118-.285-.236-.569-.354-.854-1.294 1.172-2.572 2.369-3.979 3.407-.271.2-.558.334-.606.691-.057.432.034.928.05 1.363.036.984.072 1.969.108 2.953.311-.084.621-.168.932-.252-.495-.71-.99-1.419-1.485-2.129-.377-.54-.782-1.423-1.474-1.61-.679-.183-1.356.395-1.904.714-.781.455-1.563.911-2.344 1.366l.684.684c.635-1.106 1.27-2.213 1.905-3.319.14-.244.048-.534-.179-.684-.862-.571-1.724-1.142-2.586-1.713-.04.305-.08.609-.119.914 1.343-.321 2.687-.642 4.03-.964.626-.15.361-1.114-.266-.964-1.343.321-2.687.642-4.03.964-.441.105-.461.688-.119.914.862.571 1.724 1.142 2.586 1.713-.06-.228-.12-.456-.179-.684-.635 1.106-1.27 2.213-1.905 3.319-.248.433.249.937.684.684.563-.328 1.125-.656 1.688-.984.313-.182.625-.364.938-.546.23-.134.577-.435.839-.382.283.057.481.498.642.728.186.266.371.532.557.798.392.562.784 1.124 1.176 1.685.265.38.951.279.932-.252-.053-1.439-.105-2.878-.158-4.317-.083.144-.165.288-.248.432 1.612-1.159 3.07-2.492 4.539-3.823.304-.276.08-.896-.354-.854-1.376.136-2.739.374-4.11.548l.5.5c.028-1.153-.162-2.295-.134-3.448.01-.422-.561-.674-.854-.354-1.259 1.381-2.518 2.762-3.777 4.143-.433.477.272 1.187.707.71z"/><path d="m7.168 20.356c-2.223.68-4.447 1.36-6.67 2.04 1.523.657 2.283 1.33 3.806 1.987-1.107 1.739-1.883 2.783-2.805 4.33 2.23-.924 4.309-1.731 6.575-2.996 1.59.826 3.18 1.651 4.77 2.477-.757-1.324-1.514-2.648-2.271-3.973-.174-.304-.353-.657-.24-.989.085-.25.317-.417.535-.566 1.262-.865 2.525-1.73 3.787-2.596-1.582.125-3.165.25-4.747.374-.183-1.274-.366-2.547-.549-3.821-1.077 1.34-2.153 2.679-3.23 4.019"/><path d="m7.035 19.874c-2.223.68-4.447 1.36-6.67 2.04-.373.114-.536.73-.119.914 1.312.581 2.493 1.406 3.806 1.987-.06-.228-.12-.456-.179-.684-.926 1.449-1.92 2.854-2.805 4.33-.205.342.146.908.565.735 2.269-.939 4.543-1.856 6.694-3.046-.168 0-.336 0-.505 0 1.59.826 3.18 1.651 4.77 2.477.436.226.94-.236.684-.684-.418-.732-.837-1.464-1.255-2.195-.199-.348-.398-.697-.598-1.045-.164-.286-.734-1.004-.591-1.356.104-.257.669-.507.886-.656.332-.228.664-.455.997-.683.731-.501 1.462-1.002 2.193-1.503.373-.255.283-.974-.252-.932-1.582.125-3.165.25-4.747.374.161.122.321.245.482.367-.183-1.274-.366-2.547-.549-3.821-.051-.358-.614-.497-.836-.221-1.077 1.34-2.153 2.679-3.23 4.019-.399.497.304 1.209.707.707 1.077-1.34 2.153-2.679 3.23-4.019-.279-.074-.557-.147-.836-.221.183 1.274.366 2.547.549 3.821.029.2.285.383.482.367 1.582-.125 3.165-.25 4.747-.374-.084-.311-.168-.621-.252-.932-.93.638-1.861 1.275-2.791 1.913-.564.387-1.545.827-1.762 1.548-.253.843.499 1.739.888 2.419.558.976 1.116 1.951 1.673 2.927.228-.228.456-.456.684-.684-1.012-.525-2.024-1.051-3.035-1.576-.506-.263-1.008-.533-1.518-.788-.538-.269-.734-.1-1.249.175-1.913 1.023-3.926 1.829-5.928 2.658.188.245.376.49.565.734.885-1.475 1.879-2.88 2.805-4.33.134-.209.061-.577-.179-.684-1.312-.581-2.493-1.406-3.806-1.987-.04.305-.08.609-.119.914 2.223-.68 4.447-1.36 6.67-2.04.613-.188.352-1.154-.266-.965z"/></g></svg>