<?xml version="1.0" encoding="UTF-8"?>
<svg xmlns="http://www.w3.org/2000/svg" xmlns:xlink="http://www.w3.org/1999/xlink" viewBox="0 0 100 100" width="100px" height="100px">
<g id="surface13452969">
<path style=" stroke:none;fill-rule:nonzero;fill:rgb(44.313726%,82.352942%,88.235295%);fill-opacity:1;" d="M 88.703125 55.929688 C 89.003906 55.3125 89.269531 54.664062 89.5 53.984375 C 92.132812 46.214844 88.152344 36.90625 79.765625 34.660156 C 78.859375 23.277344 70.859375 15.46875 61.824219 14.136719 C 51.484375 12.609375 42.011719 19.179688 38.859375 29.621094 C 35.0625 28.273438 31.359375 28.4375 27.871094 30.476562 C 26.285156 31.210938 24.839844 32.289062 23.539062 33.710938 C 21.632812 35.796875 20.394531 38.429688 19.886719 41.207031 C 19.140625 41.324219 18.40625 41.441406 17.710938 41.691406 C 13.671875 43.140625 11.121094 46.121094 10.425781 50.613281 C 9.988281 53.410156 10.867188 56.199219 11.355469 57.328125 C 13.292969 61.78125 17.777344 64.308594 22.339844 63.640625 C 22.566406 63.605469 22.894531 63.707031 23.089844 63.871094 C 23.332031 70.992188 26.789062 77.289062 31.972656 80.886719 C 40.296875 86.660156 51 84.878906 57.753906 76.964844 C 60.648438 79.925781 64.09375 81.363281 68.136719 80.84375 C 72.160156 80.324219 75.285156 78.101562 77.5625 74.492188 C 78.617188 74.777344 79.613281 75.183594 80.648438 75.296875 C 84.6875 75.738281 87.972656 74.132812 90.378906 70.496094 C 91.300781 69.105469 92.171875 67.304688 92.171875 64.144531 C 92.175781 60.886719 90.878906 57.917969 88.703125 55.929688 Z M 88.703125 55.929688 "/>
<path style=" stroke:none;fill-rule:nonzero;fill:rgb(100%,100%,100%);fill-opacity:1;" d="M 18.367188 47.964844 L 8.339844 47.964844 C 8.0625 47.964844 7.839844 47.742188 7.839844 47.464844 C 7.839844 47.1875 8.0625 46.964844 8.339844 46.964844 L 18.367188 46.964844 C 18.644531 46.964844 18.867188 47.1875 18.867188 47.464844 C 18.867188 47.742188 18.644531 47.964844 18.367188 47.964844 Z M 21.25 47.964844 L 19.804688 47.964844 C 19.527344 47.964844 19.304688 47.742188 19.304688 47.464844 C 19.304688 47.1875 19.527344 46.964844 19.804688 46.964844 L 21.25 46.964844 C 21.523438 46.964844 21.75 47.1875 21.75 47.464844 C 21.75 47.742188 21.527344 47.964844 21.25 47.964844 Z M 25.304688 47.964844 L 22.757812 47.964844 C 22.480469 47.964844 22.257812 47.742188 22.257812 47.464844 C 22.257812 47.1875 22.480469 46.964844 22.757812 46.964844 L 25.304688 46.964844 C 25.578125 46.964844 25.804688 47.1875 25.804688 47.464844 C 25.804688 47.742188 25.578125 47.964844 25.304688 47.964844 Z M 25.304688 49.828125 L 15.6875 49.828125 C 15.410156 49.828125 15.1875 49.605469 15.1875 49.328125 C 15.1875 49.054688 15.410156 48.828125 15.6875 48.828125 L 25.304688 48.828125 C 25.578125 48.828125 25.804688 49.054688 25.804688 49.328125 C 25.804688 49.605469 25.578125 49.828125 25.304688 49.828125 Z M 13.957031 49.828125 L 13.375 49.828125 C 13.101562 49.828125 12.875 49.605469 12.875 49.328125 C 12.875 49.054688 13.101562 48.828125 13.375 48.828125 L 13.957031 48.828125 C 14.230469 48.828125 14.457031 49.054688 14.457031 49.328125 C 14.457031 49.605469 14.234375 49.828125 13.957031 49.828125 Z M 11.578125 49.828125 L 10.121094 49.828125 C 9.847656 49.828125 9.621094 49.605469 9.621094 49.328125 C 9.621094 49.054688 9.847656 48.828125 10.121094 48.828125 L 11.578125 48.828125 C 11.855469 48.828125 12.078125 49.054688 12.078125 49.328125 C 12.078125 49.605469 11.855469 49.828125 11.578125 49.828125 Z M 20.714844 46.101562 L 15.6875 46.101562 C 15.410156 46.101562 15.1875 45.875 15.1875 45.601562 C 15.1875 45.324219 15.410156 45.101562 15.6875 45.101562 L 20.714844 45.101562 C 20.992188 45.101562 21.214844 45.324219 21.214844 45.601562 C 21.214844 45.875 20.992188 46.101562 20.714844 46.101562 Z M 20.714844 44.234375 L 19.457031 44.234375 C 19.183594 44.234375 18.957031 44.011719 18.957031 43.734375 C 18.957031 43.460938 19.183594 43.234375 19.457031 43.234375 L 20.714844 43.234375 C 20.992188 43.234375 21.214844 43.460938 21.214844 43.734375 C 21.214844 44.011719 20.992188 44.234375 20.714844 44.234375 Z M 17.445312 51.695312 L 15.6875 51.695312 C 15.410156 51.695312 15.1875 51.472656 15.1875 51.195312 C 15.1875 50.917969 15.410156 50.695312 15.6875 50.695312 L 17.445312 50.695312 C 17.722656 50.695312 17.945312 50.917969 17.945312 51.195312 C 17.945312 51.472656 17.722656 51.695312 17.445312 51.695312 Z M 74.394531 25.644531 L 64.363281 25.644531 C 64.089844 25.644531 63.863281 25.421875 63.863281 25.144531 C 63.863281 24.867188 64.089844 24.644531 64.363281 24.644531 L 74.394531 24.644531 C 74.671875 24.644531 74.894531 24.867188 74.894531 25.144531 C 74.894531 25.421875 74.671875 25.644531 74.394531 25.644531 Z M 77.277344 25.644531 L 75.828125 25.644531 C 75.554688 25.644531 75.328125 25.421875 75.328125 25.144531 C 75.328125 24.867188 75.554688 24.644531 75.828125 24.644531 L 77.277344 24.644531 C 77.550781 24.644531 77.777344 24.867188 77.777344 25.144531 C 77.777344 25.421875 77.550781 25.644531 77.277344 25.644531 Z M 81.328125 25.644531 L 78.785156 25.644531 C 78.507812 25.644531 78.285156 25.421875 78.285156 25.144531 C 78.285156 24.867188 78.507812 24.644531 78.785156 24.644531 L 81.328125 24.644531 C 81.605469 24.644531 81.828125 24.867188 81.828125 25.144531 C 81.828125 25.421875 81.605469 25.644531 81.328125 25.644531 Z M 81.328125 27.507812 L 71.714844 27.507812 C 71.4375 27.507812 71.214844 27.285156 71.214844 27.007812 C 71.214844 26.734375 71.4375 26.507812 71.714844 26.507812 L 81.328125 26.507812 C 81.605469 26.507812 81.828125 26.734375 81.828125 27.007812 C 81.828125 27.285156 81.605469 27.507812 81.328125 27.507812 Z M 69.980469 27.507812 L 69.402344 27.507812 C 69.125 27.507812 68.902344 27.285156 68.902344 27.007812 C 68.902344 26.734375 69.125 26.507812 69.402344 26.507812 L 69.980469 26.507812 C 70.257812 26.507812 70.480469 26.734375 70.480469 27.007812 C 70.480469 27.285156 70.257812 27.507812 69.980469 27.507812 Z M 67.605469 27.507812 L 66.148438 27.507812 C 65.871094 27.507812 65.648438 27.285156 65.648438 27.007812 C 65.648438 26.734375 65.871094 26.507812 66.148438 26.507812 L 67.605469 26.507812 C 67.882812 26.507812 68.105469 26.734375 68.105469 27.007812 C 68.105469 27.285156 67.882812 27.507812 67.605469 27.507812 Z M 76.742188 23.78125 L 71.714844 23.78125 C 71.4375 23.78125 71.214844 23.554688 71.214844 23.28125 C 71.214844 23.003906 71.4375 22.78125 71.714844 22.78125 L 76.742188 22.78125 C 77.015625 22.78125 77.242188 23.003906 77.242188 23.28125 C 77.242188 23.554688 77.015625 23.78125 76.742188 23.78125 Z M 76.742188 21.914062 L 75.484375 21.914062 C 75.207031 21.914062 74.984375 21.691406 74.984375 21.414062 C 74.984375 21.136719 75.207031 20.914062 75.484375 20.914062 L 76.742188 20.914062 C 77.015625 20.914062 77.242188 21.136719 77.242188 21.414062 C 77.242188 21.691406 77.015625 21.914062 76.742188 21.914062 Z M 73.472656 29.375 L 71.714844 29.375 C 71.4375 29.375 71.214844 29.148438 71.214844 28.875 C 71.214844 28.597656 71.4375 28.375 71.714844 28.375 L 73.472656 28.375 C 73.75 28.375 73.972656 28.597656 73.972656 28.875 C 73.972656 29.148438 73.75 29.375 73.472656 29.375 Z M 73.472656 29.375 "/>
<path style=" stroke:none;fill-rule:nonzero;fill:rgb(99.215686%,98.823529%,93.725491%);fill-opacity:1;" d="M 74.964844 48.796875 C 74.964844 48.796875 85.582031 48.796875 85.644531 48.796875 C 88.097656 48.796875 90.085938 46.8125 90.085938 44.359375 C 90.085938 42.21875 88.570312 40.433594 86.558594 40.015625 C 86.582031 39.828125 86.597656 39.636719 86.597656 39.445312 C 86.597656 36.90625 84.539062 34.847656 82 34.847656 C 80.5 34.847656 79.171875 35.566406 78.335938 36.679688 C 78.117188 33.851562 75.59375 31.671875 72.640625 32.03125 C 70.480469 32.296875 68.695312 33.964844 68.296875 36.105469 C 68.171875 36.789062 68.183594 37.457031 68.308594 38.082031 C 67.730469 37.457031 66.90625 37.066406 65.988281 37.066406 C 64.308594 37.066406 62.9375 38.375 62.828125 40.027344 C 62.066406 39.859375 61.234375 39.867188 60.359375 40.195312 C 58.691406 40.824219 57.5 42.398438 57.429688 44.179688 C 57.332031 46.714844 59.355469 48.796875 61.867188 48.796875 C 62.058594 48.796875 62.726562 48.796875 62.882812 48.796875 L 72.097656 48.796875 "/>
<path style=" stroke:none;fill-rule:nonzero;fill:rgb(27.843139%,16.862746%,16.078432%);fill-opacity:1;" d="M 85.644531 49.296875 L 74.964844 49.296875 C 74.6875 49.296875 74.464844 49.074219 74.464844 48.796875 C 74.464844 48.523438 74.6875 48.296875 74.964844 48.296875 L 85.644531 48.296875 C 87.816406 48.296875 89.585938 46.53125 89.585938 44.359375 C 89.585938 42.503906 88.269531 40.882812 86.457031 40.503906 C 86.203125 40.449219 86.03125 40.210938 86.0625 39.953125 C 86.082031 39.785156 86.097656 39.617188 86.097656 39.445312 C 86.097656 37.1875 84.257812 35.347656 82 35.347656 C 80.707031 35.347656 79.515625 35.941406 78.730469 36.980469 C 78.605469 37.148438 78.394531 37.21875 78.191406 37.15625 C 77.992188 37.097656 77.851562 36.925781 77.835938 36.714844 C 77.742188 35.476562 77.136719 34.316406 76.171875 33.527344 C 75.199219 32.726562 73.964844 32.375 72.699219 32.527344 C 70.753906 32.765625 69.144531 34.277344 68.789062 36.195312 C 68.675781 36.796875 68.679688 37.398438 68.800781 37.984375 C 68.84375 38.203125 68.738281 38.425781 68.539062 38.527344 C 68.339844 38.632812 68.09375 38.589844 67.941406 38.425781 C 67.429688 37.871094 66.734375 37.566406 65.988281 37.566406 C 64.585938 37.566406 63.417969 38.664062 63.324219 40.0625 C 63.316406 40.207031 63.242188 40.34375 63.128906 40.429688 C 63.011719 40.515625 62.859375 40.546875 62.71875 40.515625 C 61.964844 40.351562 61.25 40.398438 60.535156 40.667969 C 59.035156 41.230469 57.988281 42.648438 57.929688 44.203125 C 57.886719 45.285156 58.277344 46.3125 59.027344 47.089844 C 59.777344 47.871094 60.785156 48.300781 61.863281 48.300781 L 72.097656 48.300781 C 72.375 48.300781 72.597656 48.523438 72.597656 48.800781 C 72.597656 49.074219 72.375 49.300781 72.097656 49.300781 L 61.867188 49.300781 C 60.511719 49.300781 59.246094 48.761719 58.304688 47.785156 C 57.367188 46.804688 56.878906 45.519531 56.929688 44.164062 C 57.007812 42.214844 58.3125 40.433594 60.183594 39.730469 C 60.90625 39.460938 61.648438 39.367188 62.40625 39.453125 C 62.769531 37.796875 64.246094 36.566406 65.988281 36.566406 C 66.589844 36.566406 67.183594 36.71875 67.707031 37 C 67.710938 36.671875 67.742188 36.34375 67.804688 36.015625 C 68.242188 33.671875 70.203125 31.828125 72.578125 31.539062 C 74.117188 31.34375 75.617188 31.78125 76.804688 32.753906 C 77.703125 33.492188 78.347656 34.496094 78.652344 35.605469 C 79.570312 34.796875 80.746094 34.347656 82 34.347656 C 84.8125 34.347656 87.097656 36.636719 87.097656 39.445312 C 87.097656 39.511719 87.097656 39.574219 87.09375 39.640625 C 89.140625 40.265625 90.585938 42.1875 90.585938 44.363281 C 90.585938 47.082031 88.367188 49.296875 85.644531 49.296875 Z M 85.644531 49.296875 "/>
<path style=" stroke:none;fill-rule:nonzero;fill:rgb(99.215686%,98.823529%,93.725491%);fill-opacity:1;" d="M 72.390625 39.019531 C 70.75 38.910156 69.335938 40.046875 69.234375 41.550781 C 69.222656 41.738281 69.230469 41.921875 69.257812 42.101562 C 68.941406 41.742188 68.472656 41.503906 67.933594 41.464844 C 66.949219 41.402344 66.097656 42.050781 65.976562 42.9375 C 65.796875 42.886719 65.609375 42.855469 65.414062 42.84375 C 63.976562 42.746094 62.742188 43.738281 62.652344 45.058594 "/>
<path style=" stroke:none;fill-rule:nonzero;fill:rgb(27.843139%,16.862746%,16.078432%);fill-opacity:1;" d="M 62.652344 45.308594 C 62.648438 45.308594 62.640625 45.308594 62.636719 45.308594 C 62.5 45.300781 62.394531 45.179688 62.402344 45.042969 C 62.503906 43.589844 63.851562 42.5 65.433594 42.59375 C 65.550781 42.601562 65.667969 42.617188 65.785156 42.636719 C 66.046875 41.761719 66.941406 41.144531 67.949219 41.21875 C 68.320312 41.242188 68.679688 41.359375 68.984375 41.550781 C 68.984375 41.546875 68.984375 41.539062 68.984375 41.535156 C 69.097656 39.894531 70.632812 38.667969 72.410156 38.769531 C 72.546875 38.78125 72.652344 38.898438 72.640625 39.035156 C 72.632812 39.175781 72.515625 39.277344 72.375 39.269531 C 70.863281 39.167969 69.578125 40.203125 69.484375 41.570312 C 69.472656 41.734375 69.480469 41.902344 69.507812 42.066406 C 69.523438 42.175781 69.464844 42.285156 69.363281 42.332031 C 69.265625 42.378906 69.144531 42.355469 69.070312 42.269531 C 68.785156 41.949219 68.367188 41.746094 67.917969 41.71875 C 67.066406 41.660156 66.328125 42.214844 66.222656 42.972656 C 66.214844 43.046875 66.175781 43.109375 66.113281 43.148438 C 66.054688 43.1875 65.980469 43.199219 65.910156 43.179688 C 65.738281 43.136719 65.566406 43.105469 65.398438 43.09375 C 64.101562 43.011719 62.984375 43.898438 62.902344 45.078125 C 62.894531 45.207031 62.785156 45.308594 62.652344 45.308594 Z M 62.652344 45.308594 "/>
<path style=" stroke:none;fill-rule:nonzero;fill:rgb(99.215686%,98.823529%,93.725491%);fill-opacity:1;" d="M 87.441406 40.535156 C 85.898438 39.808594 84.117188 40.320312 83.457031 41.683594 C 83.375 41.855469 83.316406 42.027344 83.277344 42.207031 "/>
<path style=" stroke:none;fill-rule:nonzero;fill:rgb(27.843139%,16.862746%,16.078432%);fill-opacity:1;" d="M 83.273438 42.457031 C 83.257812 42.457031 83.238281 42.453125 83.21875 42.449219 C 83.085938 42.417969 83 42.285156 83.03125 42.152344 C 83.074219 41.953125 83.144531 41.757812 83.230469 41.578125 C 83.949219 40.09375 85.886719 39.527344 87.550781 40.308594 C 87.675781 40.367188 87.726562 40.519531 87.667969 40.644531 C 87.609375 40.769531 87.460938 40.820312 87.335938 40.761719 C 85.917969 40.09375 84.28125 40.558594 83.683594 41.796875 C 83.609375 41.945312 83.554688 42.101562 83.519531 42.265625 C 83.492188 42.378906 83.390625 42.457031 83.273438 42.457031 Z M 83.273438 42.457031 "/>
<path style=" stroke:none;fill-rule:nonzero;fill:rgb(96.470588%,64.705884%,4.705882%);fill-opacity:1;" d="M 65.261719 70.226562 L 39.539062 70.226562 C 35.773438 70.226562 32.691406 67.144531 32.691406 63.378906 L 32.691406 37.65625 C 32.691406 33.890625 35.773438 30.808594 39.539062 30.808594 L 65.261719 30.808594 C 69.027344 30.808594 72.105469 33.890625 72.105469 37.65625 L 72.105469 63.378906 C 72.109375 67.144531 69.027344 70.226562 65.261719 70.226562 Z M 65.261719 70.226562 "/>
<path style=" stroke:none;fill-rule:nonzero;fill:rgb(27.843139%,16.862746%,16.078432%);fill-opacity:1;" d="M 65.261719 70.925781 L 39.539062 70.925781 C 35.375 70.925781 31.992188 67.539062 31.992188 63.378906 L 31.992188 37.65625 C 31.992188 33.496094 35.378906 30.109375 39.539062 30.109375 L 65.261719 30.109375 C 69.421875 30.109375 72.808594 33.496094 72.808594 37.65625 L 72.808594 63.378906 C 72.808594 67.539062 69.421875 70.925781 65.261719 70.925781 Z M 39.539062 31.511719 C 36.148438 31.511719 33.390625 34.265625 33.390625 37.65625 L 33.390625 63.378906 C 33.390625 66.769531 36.148438 69.527344 39.539062 69.527344 L 65.261719 69.527344 C 68.648438 69.527344 71.40625 66.769531 71.40625 63.378906 L 71.40625 37.65625 C 71.40625 34.265625 68.648438 31.511719 65.261719 31.511719 Z M 39.539062 31.511719 "/>
<path style=" stroke:none;fill-rule:nonzero;fill:rgb(99.215686%,98.823529%,93.333334%);fill-opacity:1;" d="M 63.742188 67.410156 L 41.054688 67.410156 C 38.003906 67.410156 35.507812 64.914062 35.507812 61.863281 L 35.507812 39.175781 C 35.507812 36.121094 38.003906 33.625 41.054688 33.625 L 63.742188 33.625 C 66.796875 33.625 69.292969 36.121094 69.292969 39.175781 L 69.292969 61.863281 C 69.292969 64.914062 66.796875 67.410156 63.742188 67.410156 Z M 63.742188 67.410156 "/>
<path style=" stroke:none;fill-rule:nonzero;fill:rgb(27.843139%,16.862746%,16.078432%);fill-opacity:1;" d="M 64.15625 67.761719 L 40.640625 67.761719 C 37.617188 67.761719 35.15625 65.300781 35.15625 62.277344 L 35.15625 38.757812 C 35.15625 35.734375 37.617188 33.273438 40.640625 33.273438 L 63.035156 33.273438 C 63.226562 33.273438 63.386719 33.433594 63.386719 33.625 C 63.386719 33.816406 63.226562 33.976562 63.035156 33.976562 L 40.640625 33.976562 C 38.003906 33.976562 35.855469 36.121094 35.855469 38.757812 L 35.855469 62.277344 C 35.855469 64.914062 38.003906 67.058594 40.640625 67.058594 L 64.15625 67.058594 C 66.796875 67.058594 68.941406 64.914062 68.941406 62.277344 L 68.941406 49.265625 C 68.941406 49.074219 69.097656 48.914062 69.292969 48.914062 C 69.484375 48.914062 69.640625 49.074219 69.640625 49.265625 L 69.640625 62.277344 C 69.640625 65.300781 67.183594 67.761719 64.15625 67.761719 Z M 64.15625 67.761719 "/>
<path style=" stroke:none;fill-rule:nonzero;fill:rgb(27.843139%,16.862746%,16.078432%);fill-opacity:1;" d="M 69.292969 47.738281 C 69.097656 47.738281 68.941406 47.582031 68.941406 47.390625 L 68.941406 44.886719 C 68.941406 44.695312 69.097656 44.535156 69.292969 44.535156 C 69.484375 44.535156 69.640625 44.695312 69.640625 44.886719 L 69.640625 47.390625 C 69.640625 47.582031 69.484375 47.738281 69.292969 47.738281 Z M 69.292969 43.984375 C 69.097656 43.984375 68.941406 43.828125 68.941406 43.636719 L 68.941406 42.386719 C 68.941406 42.191406 69.097656 42.035156 69.292969 42.035156 C 69.484375 42.035156 69.640625 42.191406 69.640625 42.386719 L 69.640625 43.636719 C 69.640625 43.828125 69.484375 43.984375 69.292969 43.984375 Z M 69.292969 43.984375 "/>
<path style=" stroke:none;fill-rule:nonzero;fill:rgb(96.470588%,64.705884%,4.705882%);fill-opacity:1;" d="M 61.492188 52.269531 L 61.492188 58.34375 L 57.914062 58.34375 L 57.863281 52.320312 C 57.863281 50.796875 57.167969 49.710938 55.800781 49.710938 C 54.753906 49.710938 54.136719 50.410156 53.863281 51.089844 C 53.765625 51.328125 53.734375 51.671875 53.734375 52.007812 L 53.734375 58.34375 L 50.109375 58.34375 C 50.109375 58.34375 50.15625 48.066406 50.109375 47.003906 L 53.734375 47.003906 L 53.734375 48.753906 C 53.726562 48.765625 53.71875 48.78125 53.710938 48.792969 L 53.734375 48.792969 L 53.734375 48.753906 C 54.238281 47.910156 55.160156 46.933594 57.167969 46.933594 C 59.65625 46.925781 61.492188 48.476562 61.492188 52.269531 Z M 45.988281 41.65625 C 44.867188 41.65625 44.136719 42.425781 44.136719 43.433594 C 44.136719 44.421875 44.847656 45.214844 45.945312 45.214844 L 45.964844 45.214844 C 47.109375 45.214844 47.816406 44.421875 47.816406 43.433594 C 47.792969 42.425781 47.105469 41.65625 45.988281 41.65625 Z M 44.1875 58.34375 L 47.769531 58.34375 L 47.769531 47.003906 L 44.1875 47.003906 Z M 44.1875 58.34375 "/>
<path style=" stroke:none;fill-rule:nonzero;fill:rgb(27.843139%,16.862746%,16.078432%);fill-opacity:1;" d="M 61.492188 58.691406 L 57.914062 58.691406 C 57.722656 58.691406 57.5625 58.539062 57.5625 58.347656 L 57.515625 52.324219 C 57.515625 51.640625 57.347656 50.0625 55.800781 50.0625 C 54.769531 50.0625 54.328125 50.871094 54.1875 51.21875 C 54.121094 51.386719 54.085938 51.648438 54.085938 52.007812 L 54.085938 58.34375 C 54.085938 58.535156 53.929688 58.691406 53.734375 58.691406 L 50.109375 58.691406 C 50.015625 58.691406 49.925781 58.65625 49.859375 58.589844 C 49.796875 58.523438 49.757812 58.433594 49.757812 58.339844 C 49.757812 58.238281 49.808594 48.0625 49.757812 47.019531 C 49.753906 46.921875 49.789062 46.832031 49.855469 46.761719 C 49.921875 46.691406 50.011719 46.652344 50.109375 46.652344 L 53.734375 46.652344 C 53.929688 46.652344 54.085938 46.808594 54.085938 47.003906 L 54.085938 47.726562 C 54.851562 46.957031 55.867188 46.582031 57.167969 46.582031 C 57.171875 46.582031 57.175781 46.582031 57.179688 46.582031 C 58.5 46.582031 59.574219 46.984375 60.371094 47.78125 C 61.347656 48.757812 61.84375 50.265625 61.84375 52.265625 L 61.84375 58.34375 C 61.84375 58.535156 61.6875 58.691406 61.492188 58.691406 Z M 58.261719 57.992188 L 61.144531 57.992188 L 61.144531 52.269531 C 61.144531 50.460938 60.71875 49.117188 59.878906 48.277344 C 59.214844 47.617188 58.308594 47.28125 57.179688 47.28125 C 57.175781 47.28125 57.171875 47.28125 57.171875 47.28125 C 55.28125 47.28125 54.488281 48.191406 54.058594 48.898438 C 53.960938 49.152344 53.550781 49.199219 53.421875 48.964844 C 53.367188 48.871094 53.351562 48.761719 53.386719 48.664062 L 53.386719 47.351562 L 50.46875 47.351562 C 50.5 49.226562 50.46875 56.300781 50.460938 57.992188 L 53.386719 57.992188 L 53.386719 52.007812 C 53.386719 51.550781 53.4375 51.207031 53.539062 50.957031 C 53.941406 49.957031 54.789062 49.359375 55.800781 49.359375 C 57.289062 49.359375 58.214844 50.492188 58.214844 52.320312 Z M 47.769531 58.691406 L 44.1875 58.691406 C 43.992188 58.691406 43.835938 58.535156 43.835938 58.34375 L 43.835938 47.003906 C 43.835938 46.8125 43.992188 46.652344 44.1875 46.652344 L 47.769531 46.652344 C 47.960938 46.652344 48.117188 46.8125 48.117188 47.003906 L 48.117188 58.34375 C 48.117188 58.535156 47.960938 58.691406 47.769531 58.691406 Z M 44.535156 57.992188 L 47.417969 57.992188 L 47.417969 47.355469 L 44.535156 47.355469 Z M 45.96875 45.5625 C 44.695312 45.5625 43.785156 44.667969 43.785156 43.433594 C 43.785156 42.203125 44.714844 41.308594 45.988281 41.308594 C 47.238281 41.308594 48.136719 42.179688 48.167969 43.425781 C 48.167969 44.667969 47.242188 45.5625 45.96875 45.5625 Z M 45.988281 42.007812 C 45.089844 42.007812 44.488281 42.582031 44.488281 43.4375 C 44.488281 44.277344 45.089844 44.863281 45.945312 44.863281 C 46.863281 44.863281 47.46875 44.289062 47.46875 43.4375 C 47.445312 42.570312 46.867188 42.007812 45.988281 42.007812 Z M 45.988281 42.007812 "/>
<path style=" stroke:none;fill-rule:nonzero;fill:rgb(99.215686%,98.823529%,93.725491%);fill-opacity:1;" d="M 42.125 72.738281 C 43.835938 72.738281 45.320312 72.738281 45.339844 72.738281 C 47.257812 72.738281 48.808594 71.21875 48.808594 69.34375 C 48.808594 67.707031 47.628906 66.34375 46.054688 66.019531 C 46.070312 65.878906 46.085938 65.730469 46.085938 65.585938 C 46.085938 63.640625 44.476562 62.066406 42.492188 62.066406 C 41.320312 62.066406 40.28125 62.617188 39.628906 63.46875 C 39.460938 61.304688 37.484375 59.636719 35.175781 59.914062 C 33.488281 60.117188 32.09375 61.394531 31.78125 63.03125 C 31.683594 63.554688 31.691406 64.0625 31.792969 64.542969 C 31.339844 64.066406 30.695312 63.765625 29.976562 63.765625 C 28.664062 63.765625 27.59375 64.765625 27.507812 66.03125 C 26.910156 65.902344 26.261719 65.910156 25.578125 66.160156 C 24.273438 66.640625 23.34375 67.84375 23.289062 69.207031 C 23.214844 71.144531 24.792969 72.738281 26.757812 72.738281 C 26.90625 72.738281 27.429688 72.738281 27.550781 72.738281 L 34.753906 72.738281 M 36.246094 72.738281 L 36.570312 72.738281 "/>
<path style=" stroke:none;fill-rule:nonzero;fill:rgb(27.843139%,16.862746%,16.078432%);fill-opacity:1;" d="M 45.339844 73.238281 L 42.125 73.238281 C 41.851562 73.238281 41.625 73.015625 41.625 72.738281 C 41.625 72.464844 41.851562 72.238281 42.125 72.238281 L 45.339844 72.238281 C 46.976562 72.238281 48.308594 70.941406 48.308594 69.34375 C 48.308594 67.980469 47.320312 66.789062 45.953125 66.511719 C 45.699219 66.457031 45.523438 66.21875 45.558594 65.957031 C 45.574219 65.835938 45.585938 65.710938 45.585938 65.585938 C 45.585938 63.921875 44.195312 62.566406 42.492188 62.566406 C 41.511719 62.566406 40.613281 63.007812 40.019531 63.773438 C 39.894531 63.9375 39.679688 64.003906 39.480469 63.945312 C 39.285156 63.886719 39.144531 63.710938 39.128906 63.507812 C 39.054688 62.59375 38.621094 61.765625 37.898438 61.175781 C 37.15625 60.566406 36.214844 60.292969 35.234375 60.410156 C 33.761719 60.585938 32.539062 61.703125 32.273438 63.121094 C 32.1875 63.566406 32.191406 64.007812 32.28125 64.441406 C 32.324219 64.660156 32.21875 64.882812 32.023438 64.984375 C 31.824219 65.089844 31.582031 65.046875 31.429688 64.886719 C 31.046875 64.484375 30.53125 64.265625 29.976562 64.265625 C 28.9375 64.265625 28.074219 65.054688 28.003906 66.0625 C 27.996094 66.207031 27.921875 66.339844 27.808594 66.429688 C 27.691406 66.515625 27.542969 66.550781 27.398438 66.519531 C 26.832031 66.394531 26.289062 66.429688 25.75 66.628906 C 24.621094 67.042969 23.835938 68.085938 23.789062 69.226562 C 23.757812 70.007812 24.039062 70.753906 24.589844 71.320312 C 25.15625 71.910156 25.925781 72.238281 26.753906 72.238281 L 34.753906 72.238281 C 35.027344 72.238281 35.253906 72.460938 35.253906 72.738281 C 35.253906 73.011719 35.027344 73.238281 34.753906 73.238281 L 26.753906 73.238281 C 25.667969 73.238281 24.613281 72.789062 23.867188 72.015625 C 23.128906 71.246094 22.746094 70.242188 22.789062 69.1875 C 22.851562 67.648438 23.902344 66.242188 25.40625 65.6875 C 25.957031 65.488281 26.523438 65.414062 27.09375 65.460938 C 27.425781 64.191406 28.601562 63.261719 29.976562 63.261719 C 30.40625 63.261719 30.832031 63.355469 31.21875 63.53125 C 31.230469 63.332031 31.253906 63.132812 31.289062 62.933594 C 31.640625 61.089844 33.214844 59.644531 35.117188 59.414062 C 36.363281 59.265625 37.578125 59.617188 38.535156 60.398438 C 39.203125 60.945312 39.683594 61.652344 39.933594 62.445312 C 40.652344 61.878906 41.542969 61.566406 42.492188 61.566406 C 44.746094 61.566406 46.585938 63.367188 46.585938 65.582031 C 46.585938 65.601562 46.585938 65.621094 46.585938 65.640625 C 48.1875 66.160156 49.3125 67.652344 49.3125 69.34375 C 49.308594 71.492188 47.53125 73.238281 45.339844 73.238281 Z M 36.570312 73.238281 L 36.242188 73.238281 C 35.96875 73.238281 35.742188 73.015625 35.742188 72.738281 C 35.742188 72.464844 35.96875 72.238281 36.242188 72.238281 L 36.570312 72.238281 C 36.847656 72.238281 37.070312 72.464844 37.070312 72.738281 C 37.070312 73.015625 36.847656 73.238281 36.570312 73.238281 Z M 36.570312 73.238281 "/>
<path style=" stroke:none;fill-rule:nonzero;fill:rgb(27.843139%,16.862746%,16.078432%);fill-opacity:1;" d="M 43.789062 67.945312 C 43.773438 67.945312 43.753906 67.945312 43.734375 67.941406 C 43.601562 67.910156 43.515625 67.777344 43.546875 67.640625 C 43.578125 67.488281 43.632812 67.34375 43.703125 67.203125 C 44.257812 66.078125 45.785156 65.664062 47.113281 66.277344 C 47.238281 66.335938 47.292969 66.484375 47.234375 66.609375 C 47.175781 66.734375 47.027344 66.789062 46.902344 66.730469 C 45.820312 66.230469 44.585938 66.542969 44.148438 67.421875 C 44.097656 67.527344 44.058594 67.636719 44.035156 67.75 C 44.007812 67.867188 43.90625 67.945312 43.789062 67.945312 Z M 39.105469 73.238281 L 38.101562 73.238281 C 37.824219 73.238281 37.601562 73.015625 37.601562 72.738281 C 37.601562 72.464844 37.824219 72.238281 38.101562 72.238281 L 39.105469 72.238281 C 39.382812 72.238281 39.605469 72.464844 39.605469 72.738281 C 39.605469 73.015625 39.382812 73.238281 39.105469 73.238281 Z M 39.105469 73.238281 "/>
</g>
</svg>
